<svg width="32" height="32" viewBox="0 0 32 32" fill="none" xmlns="http://www.w3.org/2000/svg">
<g id="&#240;&#159;&#166;&#134; emoji &#34;smiling face with heart eyes&#34;">
<path id="Vector" d="M16 32C26.6687 32 32 24.8366 32 16C32 7.16343 26.6687 0 16 0C5.3312 0 0 7.16343 0 16C0 24.8366 5.3312 32 16 32Z" fill="url(#paint0_radial_63_1939)"/>
<path id="Vector_2" d="M16 32C26.6687 32 32 24.8366 32 16C32 7.16343 26.6687 0 16 0C5.3312 0 0 7.16343 0 16C0 24.8366 5.3312 32 16 32Z" fill="url(#paint1_radial_63_1939)"/>
<path id="Vector_3" d="M16 32C26.6687 32 32 24.8366 32 16C32 7.16343 26.6687 0 16 0C5.3312 0 0 7.16343 0 16C0 24.8366 5.3312 32 16 32Z" fill="url(#paint2_radial_63_1939)"/>
<path id="Vector_4" d="M16 32C26.6687 32 32 24.8366 32 16C32 7.16343 26.6687 0 16 0C5.3312 0 0 7.16343 0 16C0 24.8366 5.3312 32 16 32Z" fill="url(#paint3_radial_63_1939)" fill-opacity="0.6"/>
<path id="Vector_5" d="M16 32C26.6687 32 32 24.8366 32 16C32 7.16343 26.6687 0 16 0C5.3312 0 0 7.16343 0 16C0 24.8366 5.3312 32 16 32Z" fill="url(#paint4_radial_63_1939)"/>
<path id="Vector_6" d="M16 32C26.6687 32 32 24.8366 32 16C32 7.16343 26.6687 0 16 0C5.3312 0 0 7.16343 0 16C0 24.8366 5.3312 32 16 32Z" fill="url(#paint5_radial_63_1939)"/>
<path id="Vector_7" d="M16 32C26.6687 32 32 24.8366 32 16C32 7.16343 26.6687 0 16 0C5.3312 0 0 7.16343 0 16C0 24.8366 5.3312 32 16 32Z" fill="url(#paint6_radial_63_1939)"/>
<path id="Vector_8" d="M16 32C26.6687 32 32 24.8366 32 16C32 7.16343 26.6687 0 16 0C5.3312 0 0 7.16343 0 16C0 24.8366 5.3312 32 16 32Z" fill="url(#paint7_radial_63_1939)"/>
<path id="Vector_9" d="M16.0014 26.2879C5.71484 26.2879 5.71484 16.0014 5.71484 16.0014H26.2879C26.2879 16.0014 26.2879 26.2879 16.0014 26.2879Z" fill="url(#paint8_radial_63_1939)"/>
<path id="Vector_10" d="M6.85742 16.5729V16.0014H25.1446V16.5729C25.1446 17.2041 24.6329 17.7158 24.0016 17.7158H8.00037C7.36914 17.7158 6.85742 17.2041 6.85742 16.5729Z" fill="url(#paint9_linear_63_1939)"/>
<path id="Vector_11" d="M9.71504 15.4294C9.71504 15.4294 6.28595 14.858 3.94305 12.154C1.5539 9.39661 3.78427 5.44842 8.00053 7.42883C9.80293 4.48886 14.2755 5.57625 13.6808 9.14322C13.1091 12.5721 9.71504 15.4294 9.71504 15.4294Z" fill="url(#paint10_radial_63_1939)"/>
<path id="Vector_12" d="M20.0219 15.4294C20.0219 15.4294 23.451 14.858 25.7938 12.154C28.183 9.39661 25.9526 5.44842 21.7363 7.42883C19.9339 4.48886 15.4613 5.57625 16.056 9.14322C16.6277 12.5721 20.0219 15.4294 20.0219 15.4294Z" fill="url(#paint11_radial_63_1939)"/>
<path id="Vector_13" d="M9.82107 14.0241C8.62544 13.647 6.61236 12.7912 5.07 11.011C2.68085 8.25369 4.91122 4.30547 9.12748 6.28588C10.9298 3.34591 15.4024 4.4333 14.8077 8.00028C14.4095 10.3888 12.6417 12.5001 11.6057 13.5613C11.138 14.0403 10.4595 14.2255 9.82107 14.0241Z" fill="url(#paint12_linear_63_1939)"/>
<path id="Vector_14" d="M22.1853 14.0241C23.381 13.647 25.3941 12.7912 26.9363 11.011C29.3256 8.25369 27.0952 4.30547 22.8789 6.28588C21.0765 3.34591 16.6039 4.4333 17.1986 8.00028C17.5968 10.3888 19.3647 12.5001 20.4007 13.5613C20.8684 14.0403 21.5469 14.2255 22.1853 14.0241Z" fill="url(#paint13_linear_63_1939)"/>
<path id="Vector_15" d="M10.9188 10.7801C11.5883 10.1106 11.0456 8.48236 9.70654 7.14331C8.36749 5.80427 6.73922 5.26151 6.0697 5.93103C5.40018 6.60056 5.94293 8.22882 7.28198 9.56787C8.62102 10.9069 10.2493 11.4497 10.9188 10.7801Z" fill="url(#paint14_radial_63_1939)"/>
<path id="Vector_16" d="M22.3932 11.5698C23.6235 11.2866 24.2764 9.56096 23.8515 7.71554C23.4266 5.87013 22.0848 4.60375 20.8546 4.88701C19.6243 5.17027 18.9714 6.89591 19.3963 8.74132C19.8212 10.5867 21.163 11.8531 22.3932 11.5698Z" fill="url(#paint15_radial_63_1939)"/>
<path id="Vector_17" d="M11.4498 7.63958C12.1194 8.3091 13.2049 8.3091 13.8744 7.63958C14.5439 6.97006 14.5439 5.88455 13.8744 5.21503C13.2049 4.5455 12.1194 4.5455 11.4498 5.21502C10.7803 5.88455 10.7803 6.97006 11.4498 7.63958Z" fill="url(#paint16_radial_63_1939)"/>
<path id="Vector_18" d="M23.9524 9.18668C24.3987 9.63303 25.4843 9.27119 26.377 8.37849C27.2696 7.4858 27.6315 6.40029 27.1851 5.95394C26.7388 5.50759 25.6533 5.86943 24.7606 6.76212C23.8679 7.65482 23.506 8.74033 23.9524 9.18668Z" fill="url(#paint17_radial_63_1939)"/>
</g>
<defs>
<radialGradient id="paint0_radial_63_1939" cx="0" cy="0" r="1" gradientUnits="userSpaceOnUse" gradientTransform="translate(26.8593 8.00063) rotate(132.839) scale(42.8643)">
<stop stop-color="#FFF478"/>
<stop offset="0.474827" stop-color="#FFB02E"/>
<stop offset="1" stop-color="#F70A8D"/>
</radialGradient>
<radialGradient id="paint1_radial_63_1939" cx="0" cy="0" r="1" gradientUnits="userSpaceOnUse" gradientTransform="translate(26.8593 8.00063) rotate(131.878) scale(44.5163)">
<stop stop-color="#FFF478"/>
<stop offset="0.474827" stop-color="#FFB02E"/>
<stop offset="1" stop-color="#F70A8D"/>
</radialGradient>
<radialGradient id="paint2_radial_63_1939" cx="0" cy="0" r="1" gradientUnits="userSpaceOnUse" gradientTransform="translate(16.0013 12.0009) rotate(101.31) scale(20.3977 26.1256)">
<stop offset="0.787821" stop-color="#F59639" stop-opacity="0"/>
<stop offset="0.972509" stop-color="#FF7DCE"/>
</radialGradient>
<radialGradient id="paint3_radial_63_1939" cx="0" cy="0" r="1" gradientUnits="userSpaceOnUse" gradientTransform="translate(18.2872 13.7154) rotate(135) scale(46.8748)">
<stop offset="0.314853" stop-opacity="0"/>
<stop offset="1"/>
</radialGradient>
<radialGradient id="paint4_radial_63_1939" cx="0" cy="0" r="1" gradientUnits="userSpaceOnUse" gradientTransform="translate(16.0013 17.1442) rotate(77.692) scale(32.1704)">
<stop offset="0.507903" stop-color="#7D6133" stop-opacity="0"/>
<stop offset="1" stop-color="#715B32"/>
</radialGradient>
<radialGradient id="paint5_radial_63_1939" cx="0" cy="0" r="1" gradientUnits="userSpaceOnUse" gradientTransform="translate(16.5727 16.5727) rotate(55.7131) scale(15.2166 11.0298)">
<stop stop-color="#FFB849"/>
<stop offset="1" stop-color="#FFB847" stop-opacity="0"/>
</radialGradient>
<radialGradient id="paint6_radial_63_1939" cx="0" cy="0" r="1" gradientUnits="userSpaceOnUse" gradientTransform="translate(21.1445 18.2872) rotate(9.86581) scale(13.3412)">
<stop stop-color="#FFA64B"/>
<stop offset="0.900412" stop-color="#FFAE46" stop-opacity="0"/>
</radialGradient>
<radialGradient id="paint7_radial_63_1939" cx="0" cy="0" r="1" gradientUnits="userSpaceOnUse" gradientTransform="translate(17.7157 14.8583) rotate(43.9708) scale(67.4943)">
<stop offset="0.185425" stop-opacity="0"/>
<stop offset="1" stop-opacity="0.4"/>
</radialGradient>
<radialGradient id="paint8_radial_63_1939" cx="0" cy="0" r="1" gradientUnits="userSpaceOnUse" gradientTransform="translate(16.0014 28.5738) rotate(-90) scale(12.5724 25.1448)">
<stop stop-color="#F70A8D"/>
<stop offset="1" stop-color="#89029C"/>
</radialGradient>
<linearGradient id="paint9_linear_63_1939" x1="16.001" y1="16.0014" x2="16.001" y2="17.7158" gradientUnits="userSpaceOnUse">
<stop stop-color="#ECCDFF"/>
<stop offset="1" stop-color="white"/>
</linearGradient>
<radialGradient id="paint10_radial_63_1939" cx="0" cy="0" r="1" gradientUnits="userSpaceOnUse" gradientTransform="translate(13.7151 13.715) rotate(-155.376) scale(15.0874 6.27128)">
<stop stop-color="#CC7521"/>
<stop offset="1" stop-color="#E6872B" stop-opacity="0"/>
</radialGradient>
<radialGradient id="paint11_radial_63_1939" cx="0" cy="0" r="1" gradientUnits="userSpaceOnUse" gradientTransform="translate(20.5737 10.2862) rotate(122.005) scale(5.39127)">
<stop stop-color="#EC812A"/>
<stop offset="1" stop-color="#FBA84C" stop-opacity="0"/>
</radialGradient>
<linearGradient id="paint12_linear_63_1939" x1="12.5561" y1="5.71439" x2="9.12735" y2="13.715" gradientUnits="userSpaceOnUse">
<stop stop-color="#CA0B4A"/>
<stop offset="1" stop-color="#F70A8D"/>
</linearGradient>
<linearGradient id="paint13_linear_63_1939" x1="25.1451" y1="5.71439" x2="19.4304" y2="14.858" gradientUnits="userSpaceOnUse">
<stop stop-color="#CA0B4A"/>
<stop offset="1" stop-color="#F70A8D"/>
</linearGradient>
<radialGradient id="paint14_radial_63_1939" cx="0" cy="0" r="1" gradientUnits="userSpaceOnUse" gradientTransform="translate(8.49426 8.35559) rotate(45) scale(3.54483 1.80174)">
<stop stop-color="#EC6686"/>
<stop offset="1" stop-color="#EC6686" stop-opacity="0"/>
</radialGradient>
<radialGradient id="paint15_radial_63_1939" cx="0" cy="0" r="1" gradientUnits="userSpaceOnUse" gradientTransform="translate(21.7163 8.00158) rotate(68.1986) scale(3.07748 2.08559)">
<stop stop-color="#EC6686"/>
<stop offset="0.259696" stop-color="#EC6686"/>
<stop offset="1" stop-color="#EC6686" stop-opacity="0"/>
</radialGradient>
<radialGradient id="paint16_radial_63_1939" cx="0" cy="0" r="1" gradientUnits="userSpaceOnUse" gradientTransform="translate(12.6621 6.4273) rotate(135) scale(1.71442)">
<stop stop-color="#EC6686"/>
<stop offset="1" stop-color="#EC6686" stop-opacity="0"/>
</radialGradient>
<radialGradient id="paint17_radial_63_1939" cx="0" cy="0" r="1" gradientUnits="userSpaceOnUse" gradientTransform="translate(25.5688 7.57031) rotate(135) scale(2.28589 1.14295)">
<stop stop-color="#EC6686"/>
<stop offset="1" stop-color="#EC6686" stop-opacity="0"/>
</radialGradient>
</defs>
</svg>
