<svg width="40" height="40" viewBox="0 0 40 40" fill="none" xmlns="http://www.w3.org/2000/svg">
<path d="M1.80078 8.32123C0.806233 8.32123 0 9.12755 0 10.122V33.7349C0 34.7294 0.806233 35.5357 1.80078 35.5357H17.654C18.1127 36.3581 18.9913 36.9144 19.9999 36.9144C21.0085 36.9144 21.8873 36.3581 22.346 35.5357H38.1992C39.1937 35.5357 40 34.7294 40 33.7349V10.122C40 9.12755 39.1937 8.32123 38.1992 8.32123H1.80078Z" fill="#3E6ACA"/>
<path d="M1.80078 6.92773C0.806233 6.92773 0 7.73391 0 8.72852V32.3413C0 33.3359 0.806233 34.142 1.80078 34.142H17.654C18.1127 34.9645 18.9913 35.5209 19.9999 35.5209C21.0085 35.5209 21.8873 34.9645 22.346 34.142H38.1992C39.1937 34.142 40 33.3359 40 32.3413V8.72852C40 7.73391 39.1937 6.92773 38.1992 6.92773H1.80078Z" fill="url(#paint0_linear_0_3749)"/>
<path d="M3.57671 5.53113L1.32125 8.32832C1.12201 8.57539 1.01367 8.88051 1.01367 9.19486V29.7875C1.01367 30.756 1.81989 31.5412 2.81446 31.5412H36.5792C37.5737 31.5412 38.38 30.756 38.38 29.7875V9.19486C38.38 8.88051 38.2717 8.57539 38.0723 8.32832L35.8169 5.53113L33.1639 26.6308H6.22966L3.57671 5.53113Z" fill="#3F9BEA"/>
<path d="M17.9297 29.4584H22.0715V31.732C22.0715 32.8757 21.1443 33.8029 20.0006 33.8029C18.8569 33.8029 17.9297 32.8757 17.9297 31.7318V29.4584Z" fill="url(#paint1_radial_0_3749)"/>
<path d="M17.9297 29.4584H22.0715V31.732C22.0715 32.8757 21.1443 33.8029 20.0006 33.8029C18.8569 33.8029 17.9297 32.8757 17.9297 31.7318V29.4584Z" fill="url(#paint2_linear_0_3749)"/>
<path d="M1.57907 7.49159L3.8345 4.61932L6.48748 26.285H19.9546V31.3272H3.07227C2.07772 31.3272 1.27148 30.521 1.27148 29.5264V8.38132C1.27148 8.05862 1.37979 7.74528 1.57907 7.49159Z" fill="url(#paint3_linear_0_3749)"/>
<path d="M38.3306 7.49159L36.0751 4.61932L33.4222 26.285H19.9551V31.3272H36.8374C37.832 31.3272 38.6381 30.521 38.6381 29.5264V8.38132C38.6381 8.05862 38.53 7.74528 38.3306 7.49159Z" fill="url(#paint4_linear_0_3749)"/>
<path d="M38.3306 7.49159L36.0751 4.61932L33.4222 26.285H19.9551V31.3272H36.8374C37.832 31.3272 38.6381 30.521 38.6381 29.5264V8.38132C38.6381 8.05862 38.53 7.74528 38.3306 7.49159Z" fill="url(#paint5_linear_0_3749)"/>
<path d="M38.3306 7.49098L36.0751 4.61871L33.4222 26.2844H19.9551V31.3266H36.8374C37.832 31.3266 38.6381 30.5204 38.6381 29.5258V8.38071C38.6381 8.05801 38.53 7.74467 38.3306 7.49098Z" fill="url(#paint6_linear_0_3749)"/>
<path d="M3.56836 5.44063C3.56836 4.645 4.21334 4 5.00899 4H16.3539C18.343 4 19.9555 5.61248 19.9555 7.6015V31.3157C19.9555 29.7305 18.3236 28.4456 16.4327 28.4456H5.36914C4.37459 28.4456 3.56836 27.6395 3.56836 26.6449V5.44063Z" fill="url(#paint7_linear_0_3749)"/>
<path d="M3.56836 5.44063C3.56836 4.645 4.21334 4 5.00899 4H16.3539C18.343 4 19.9555 5.61248 19.9555 7.6015V31.3157C19.9555 29.7305 18.3236 28.4456 16.4327 28.4456H5.36914C4.37459 28.4456 3.56836 27.6395 3.56836 26.6449V5.44063Z" fill="url(#paint8_linear_0_3749)"/>
<path d="M3.56836 5.44063C3.56836 4.645 4.21334 4 5.00899 4H16.3539C18.343 4 19.9555 5.61248 19.9555 7.6015V31.3157C19.9555 29.7305 18.3236 28.4456 16.4327 28.4456H5.36914C4.37459 28.4456 3.56836 27.6395 3.56836 26.6449V5.44063Z" fill="url(#paint9_linear_0_3749)"/>
<path d="M36.3422 5.44063C36.3422 4.645 35.6972 4 34.9016 4H23.5566C21.5676 4 19.9551 5.61248 19.9551 7.6015V31.3157C19.9551 29.7305 21.587 28.4456 23.4778 28.4456H34.5414C35.5359 28.4456 36.3422 27.6395 36.3422 26.6449V5.44063Z" fill="url(#paint10_linear_0_3749)"/>
<path d="M36.3422 5.44063C36.3422 4.645 35.6972 4 34.9016 4H23.5566C21.5676 4 19.9551 5.61248 19.9551 7.6015V31.3157C19.9551 29.7305 21.587 28.4456 23.4778 28.4456H34.5414C35.5359 28.4456 36.3422 27.6395 36.3422 26.6449V5.44063Z" fill="url(#paint11_linear_0_3749)"/>
<path d="M36.3422 5.44063C36.3422 4.645 35.6972 4 34.9016 4H23.5566C21.5676 4 19.9551 5.61248 19.9551 7.6015V31.3157C19.9551 29.7305 21.587 28.4456 23.4778 28.4456H34.5414C35.5359 28.4456 36.3422 27.6395 36.3422 26.6449V5.44063Z" fill="url(#paint12_linear_0_3749)"/>
<defs>
<linearGradient id="paint0_linear_0_3749" x1="19.9999" y1="13.2305" x2="19.9999" y2="35.5209" gradientUnits="userSpaceOnUse">
<stop stop-color="#5DD8FB"/>
<stop offset="1" stop-color="#41AEF2"/>
</linearGradient>
<radialGradient id="paint1_radial_0_3749" cx="0" cy="0" r="1" gradientUnits="userSpaceOnUse" gradientTransform="translate(18.7964 33.5328) rotate(-26.565) scale(3.22134 4.51994)">
<stop offset="0.231937" stop-color="#306AB3"/>
<stop offset="1" stop-color="#1A4CA8"/>
</radialGradient>
<linearGradient id="paint2_linear_0_3749" x1="20.0006" y1="31.0117" x2="20.0006" y2="32.0921" gradientUnits="userSpaceOnUse">
<stop stop-color="#1748A6"/>
<stop offset="1" stop-color="#1748A6" stop-opacity="0"/>
</linearGradient>
<linearGradient id="paint3_linear_0_3749" x1="14.676" y1="33.7133" x2="4.23153" y2="24.034" gradientUnits="userSpaceOnUse">
<stop offset="0.749863" stop-color="#B3A9CF"/>
<stop offset="0.931655" stop-color="#B6BAC5"/>
</linearGradient>
<linearGradient id="paint4_linear_0_3749" x1="25.2335" y1="33.7133" x2="35.6781" y2="24.034" gradientUnits="userSpaceOnUse">
<stop offset="0.71707" stop-color="#BBB3D9"/>
<stop offset="0.912508" stop-color="#DCDDE8"/>
</linearGradient>
<linearGradient id="paint5_linear_0_3749" x1="36.9497" y1="5.2323" x2="36.9497" y2="11.6301" gradientUnits="userSpaceOnUse">
<stop stop-color="#D8DAE2"/>
<stop offset="1" stop-color="#D8DAE2" stop-opacity="0"/>
</linearGradient>
<linearGradient id="paint6_linear_0_3749" x1="19.9551" y1="31.3266" x2="22.2849" y2="28.5805" gradientUnits="userSpaceOnUse">
<stop stop-color="#A699C9"/>
<stop offset="1" stop-color="#A699C9" stop-opacity="0"/>
</linearGradient>
<linearGradient id="paint7_linear_0_3749" x1="3.56836" y1="17.6578" x2="18.7287" y2="17.6578" gradientUnits="userSpaceOnUse">
<stop stop-color="#F3F1FA"/>
<stop offset="1" stop-color="#F0EBF9"/>
</linearGradient>
<linearGradient id="paint8_linear_0_3749" x1="19.9555" y1="29.4361" x2="16.0275" y2="29.4361" gradientUnits="userSpaceOnUse">
<stop stop-color="#D5CCE8"/>
<stop offset="1" stop-color="#F2EBFF" stop-opacity="0"/>
</linearGradient>
<linearGradient id="paint9_linear_0_3749" x1="20.0343" y1="29.7513" x2="19.7191" y2="29.7513" gradientUnits="userSpaceOnUse">
<stop offset="0.178572" stop-color="#BFB3D1"/>
<stop offset="1" stop-color="#BFB3D1" stop-opacity="0"/>
</linearGradient>
<linearGradient id="paint10_linear_0_3749" x1="19.9551" y1="17.6578" x2="35.1154" y2="17.6578" gradientUnits="userSpaceOnUse">
<stop stop-color="#F3F1FA"/>
<stop offset="1" stop-color="#F0EBF9"/>
</linearGradient>
<linearGradient id="paint11_linear_0_3749" x1="19.9551" y1="29.4361" x2="23.9956" y2="29.4361" gradientUnits="userSpaceOnUse">
<stop stop-color="#D5CCE8"/>
<stop offset="1" stop-color="#F2EBFF" stop-opacity="0"/>
</linearGradient>
<linearGradient id="paint12_linear_0_3749" x1="19.9156" y1="29.7511" x2="20.214" y2="29.7511" gradientUnits="userSpaceOnUse">
<stop stop-color="#BFB3D1"/>
<stop offset="1" stop-color="#BFB3D1" stop-opacity="0"/>
</linearGradient>
</defs>
</svg>
