<svg width="40" height="40" viewBox="0 0 40 40" fill="none" xmlns="http://www.w3.org/2000/svg">
<path d="M19.9992 38.3304C32.445 38.3304 38.6644 29.9737 38.6644 19.6652C38.6644 9.35668 32.445 1 19.9992 1C7.55323 1 1.33398 9.35668 1.33398 19.6652C1.33398 29.9737 7.55323 38.3304 19.9992 38.3304Z" fill="url(#paint0_radial_0_3728)"/>
<path d="M19.9992 38.3304C32.445 38.3304 38.6644 29.9737 38.6644 19.6652C38.6644 9.35668 32.445 1 19.9992 1C7.55323 1 1.33398 9.35668 1.33398 19.6652C1.33398 29.9737 7.55323 38.3304 19.9992 38.3304Z" fill="url(#paint1_radial_0_3728)"/>
<path d="M19.9992 38.3304C32.445 38.3304 38.6644 29.9737 38.6644 19.6652C38.6644 9.35668 32.445 1 19.9992 1C7.55323 1 1.33398 9.35668 1.33398 19.6652C1.33398 29.9737 7.55323 38.3304 19.9992 38.3304Z" fill="url(#paint2_radial_0_3728)"/>
<path d="M19.9992 38.3304C32.445 38.3304 38.6644 29.9737 38.6644 19.6652C38.6644 9.35668 32.445 1 19.9992 1C7.55323 1 1.33398 9.35668 1.33398 19.6652C1.33398 29.9737 7.55323 38.3304 19.9992 38.3304Z" fill="url(#paint3_radial_0_3728)" fill-opacity="0.6"/>
<path d="M19.9992 38.3304C32.445 38.3304 38.6644 29.9737 38.6644 19.6652C38.6644 9.35668 32.445 1 19.9992 1C7.55323 1 1.33398 9.35668 1.33398 19.6652C1.33398 29.9737 7.55323 38.3304 19.9992 38.3304Z" fill="url(#paint4_radial_0_3728)"/>
<path d="M19.9992 38.3304C32.445 38.3304 38.6644 29.9737 38.6644 19.6652C38.6644 9.35668 32.445 1 19.9992 1C7.55323 1 1.33398 9.35668 1.33398 19.6652C1.33398 29.9737 7.55323 38.3304 19.9992 38.3304Z" fill="url(#paint5_radial_0_3728)"/>
<path d="M19.9992 38.3304C32.445 38.3304 38.6644 29.9737 38.6644 19.6652C38.6644 9.35668 32.445 1 19.9992 1C7.55323 1 1.33398 9.35668 1.33398 19.6652C1.33398 29.9737 7.55323 38.3304 19.9992 38.3304Z" fill="url(#paint6_radial_0_3728)"/>
<path d="M19.9992 38.3304C32.445 38.3304 38.6644 29.9737 38.6644 19.6652C38.6644 9.35668 32.445 1 19.9992 1C7.55323 1 1.33398 9.35668 1.33398 19.6652C1.33398 29.9737 7.55323 38.3304 19.9992 38.3304Z" fill="url(#paint7_radial_0_3728)"/>
<path d="M29.3327 25.0001C29.3327 30.1601 25.1593 34.3335 19.9993 34.3335C14.8393 34.3335 10.666 30.1601 10.666 25.0001H19.9993H29.3327Z" fill="url(#paint8_radial_0_3728)"/>
<path d="M16 25.0001H24V25.6668C24 26.4032 23.4031 27.0001 22.6667 27.0001H17.3333C16.5969 27.0001 16 26.4032 16 25.6668V25.0001Z" fill="url(#paint9_linear_0_3728)"/>
<path d="M11.334 22.3334C14.6477 22.3334 17.334 19.6471 17.334 16.3334C17.334 13.0196 14.6477 10.3334 11.334 10.3334C8.02028 10.3334 5.33398 13.0196 5.33398 16.3334C5.33398 19.6471 8.02028 22.3334 11.334 22.3334Z" fill="white"/>
<path d="M28.666 22.3334C31.9797 22.3334 34.666 19.6471 34.666 16.3334C34.666 13.0196 31.9797 10.3334 28.666 10.3334C25.3523 10.3334 22.666 13.0196 22.666 16.3334C22.666 19.6471 25.3523 22.3334 28.666 22.3334Z" fill="white"/>
<path fill-rule="evenodd" clip-rule="evenodd" d="M12.6673 12.9998C10.8259 12.9998 9.33398 14.4918 9.33398 16.3331C9.33398 18.1744 10.8259 19.6664 12.6673 19.6664C14.5087 19.6664 16.0007 18.1744 16.0007 16.3331C16.0007 14.4918 14.5087 12.9998 12.6673 12.9998ZM27.334 12.9998C25.4927 12.9998 24.0007 14.4918 24.0007 16.3331C24.0007 18.1744 25.4927 19.6664 27.334 19.6664C29.1753 19.6664 30.6673 18.1744 30.6673 16.3331C30.6673 14.4918 29.1753 12.9998 27.334 12.9998Z" fill="#402A32"/>
<path fill-rule="evenodd" clip-rule="evenodd" d="M0 15.6666C0 14.9302 0.59696 14.3333 1.33333 14.3333H4.66667V16.9999H1.33333C0.59696 16.9999 0 16.403 0 15.6666ZM38.5507 16.9999H35.3333V14.3333H38.5507C39.3479 14.3333 40 14.9333 40 15.6666C40 16.3999 39.3479 16.9999 38.5507 16.9999ZM17.3333 14.3333H22.6667V16.9999H17.3333V14.3333Z" fill="url(#paint10_linear_0_3728)"/>
<path fill-rule="evenodd" clip-rule="evenodd" d="M11.3333 10.3332C8.01963 10.3332 5.33333 13.0194 5.33333 16.3331C5.33333 19.6469 8.01963 22.3331 11.3333 22.3331C14.6471 22.3331 17.3333 19.6469 17.3333 16.3331C17.3333 13.0194 14.6471 10.3332 11.3333 10.3332ZM4 16.3331C4 12.283 7.28324 8.99982 11.3333 8.99982C15.3835 8.99982 18.6667 12.283 18.6667 16.3331C18.6667 20.3833 15.3835 23.6665 11.3333 23.6665C7.28324 23.6665 4 20.3833 4 16.3331Z" fill="url(#paint11_radial_0_3728)"/>
<path fill-rule="evenodd" clip-rule="evenodd" d="M28.6673 10.3429C25.3591 10.3429 22.6771 13.0249 22.6771 16.3331C22.6771 19.6414 25.3591 22.3234 28.6673 22.3234C31.9756 22.3234 34.6576 19.6414 34.6576 16.3331C34.6576 13.0249 31.9756 10.3429 28.6673 10.3429ZM21.334 16.3331C21.334 12.283 24.6172 8.99982 28.6673 8.99982C32.7175 8.99982 36.0007 12.283 36.0007 16.3331C36.0007 20.3833 32.7175 23.6665 28.6673 23.6665C24.6172 23.6665 21.334 20.3833 21.334 16.3331Z" fill="url(#paint12_radial_0_3728)"/>
<path fill-rule="evenodd" clip-rule="evenodd" d="M11.3333 10.3332C8.01963 10.3332 5.33333 13.0194 5.33333 16.3331C5.33333 19.6469 8.01963 22.3331 11.3333 22.3331C14.6471 22.3331 17.3333 19.6469 17.3333 16.3331C17.3333 13.0194 14.6471 10.3332 11.3333 10.3332ZM4 16.3331C4 12.283 7.28324 8.99982 11.3333 8.99982C15.3835 8.99982 18.6667 12.283 18.6667 16.3331C18.6667 20.3833 15.3835 23.6665 11.3333 23.6665C7.28324 23.6665 4 20.3833 4 16.3331Z" fill="url(#paint13_radial_0_3728)"/>
<path fill-rule="evenodd" clip-rule="evenodd" d="M28.6673 10.3332C25.3536 10.3332 22.6673 13.0194 22.6673 16.3331C22.6673 19.6469 25.3536 22.3331 28.6673 22.3331C31.9811 22.3331 34.6673 19.6469 34.6673 16.3331C34.6673 13.0194 31.9811 10.3332 28.6673 10.3332ZM21.334 16.3331C21.334 12.283 24.6172 8.99982 28.6673 8.99982C32.7175 8.99982 36.0007 12.283 36.0007 16.3331C36.0007 20.3833 32.7175 23.6665 28.6673 23.6665C24.6172 23.6665 21.334 20.3833 21.334 16.3331Z" fill="url(#paint14_radial_0_3728)"/>
<defs>
<radialGradient id="paint0_radial_0_3728" cx="0" cy="0" r="1" gradientUnits="userSpaceOnUse" gradientTransform="translate(32.6673 10.3333) rotate(132.839) scale(50.0044)">
<stop stop-color="#FFF478"/>
<stop offset="0.474827" stop-color="#FFB02E"/>
<stop offset="1" stop-color="#F70A8D"/>
</radialGradient>
<radialGradient id="paint1_radial_0_3728" cx="0" cy="0" r="1" gradientUnits="userSpaceOnUse" gradientTransform="translate(32.6673 10.3333) rotate(131.878) scale(51.9316)">
<stop stop-color="#FFF478"/>
<stop offset="0.474827" stop-color="#FFB02E"/>
<stop offset="1" stop-color="#F70A8D"/>
</radialGradient>
<radialGradient id="paint2_radial_0_3728" cx="0" cy="0" r="1" gradientUnits="userSpaceOnUse" gradientTransform="translate(20.0007 15) rotate(101.31) scale(23.7955 30.4775)">
<stop offset="0.787821" stop-color="#F59639" stop-opacity="0"/>
<stop offset="0.972509" stop-color="#FF7DCE"/>
</radialGradient>
<radialGradient id="paint3_radial_0_3728" cx="0" cy="0" r="1" gradientUnits="userSpaceOnUse" gradientTransform="translate(22.6673 17) rotate(135) scale(54.6829)">
<stop offset="0.314853" stop-opacity="0"/>
<stop offset="1"/>
</radialGradient>
<radialGradient id="paint4_radial_0_3728" cx="0" cy="0" r="1" gradientUnits="userSpaceOnUse" gradientTransform="translate(20.0006 21) rotate(77.692) scale(37.5292)">
<stop offset="0.507903" stop-color="#7D6133" stop-opacity="0"/>
<stop offset="1" stop-color="#715B32"/>
</radialGradient>
<radialGradient id="paint5_radial_0_3728" cx="0" cy="0" r="1" gradientUnits="userSpaceOnUse" gradientTransform="translate(20.6673 20.3333) rotate(55.7131) scale(17.7513 12.8671)">
<stop stop-color="#FFB849"/>
<stop offset="1" stop-color="#FFB847" stop-opacity="0"/>
</radialGradient>
<radialGradient id="paint6_radial_0_3728" cx="0" cy="0" r="1" gradientUnits="userSpaceOnUse" gradientTransform="translate(26.0007 22.3333) rotate(9.86581) scale(15.5635)">
<stop stop-color="#FFA64B"/>
<stop offset="0.900412" stop-color="#FFAE46" stop-opacity="0"/>
</radialGradient>
<radialGradient id="paint7_radial_0_3728" cx="0" cy="0" r="1" gradientUnits="userSpaceOnUse" gradientTransform="translate(22.0007 18.3333) rotate(43.9708) scale(78.7372)">
<stop offset="0.185425" stop-opacity="0"/>
<stop offset="1" stop-opacity="0.4"/>
</radialGradient>
<radialGradient id="paint8_radial_0_3728" cx="0" cy="0" r="1" gradientUnits="userSpaceOnUse" gradientTransform="translate(19.9993 36.4076) rotate(-90) scale(12.7407 25.4815)">
<stop stop-color="#F70A8D"/>
<stop offset="1" stop-color="#89029C"/>
</radialGradient>
<linearGradient id="paint9_linear_0_3728" x1="20" y1="25.0001" x2="20" y2="27.0001" gradientUnits="userSpaceOnUse">
<stop stop-color="#CEA4F3"/>
<stop offset="0.279919" stop-color="#ECCDFF"/>
<stop offset="1" stop-color="white"/>
</linearGradient>
<linearGradient id="paint10_linear_0_3728" x1="20" y1="14.3333" x2="20" y2="16.9999" gradientUnits="userSpaceOnUse">
<stop stop-color="#5F5253"/>
<stop offset="1" stop-color="#4D2C4F"/>
</linearGradient>
<radialGradient id="paint11_radial_0_3728" cx="0" cy="0" r="1" gradientUnits="userSpaceOnUse" gradientTransform="translate(16 12.9998) rotate(131.186) scale(14.1735)">
<stop stop-color="#54424A"/>
<stop offset="1" stop-color="#52394D"/>
</radialGradient>
<radialGradient id="paint12_radial_0_3728" cx="0" cy="0" r="1" gradientUnits="userSpaceOnUse" gradientTransform="translate(33.334 12.9998) rotate(131.186) scale(14.1735)">
<stop stop-color="#54424A"/>
<stop offset="1" stop-color="#52394D"/>
</radialGradient>
<radialGradient id="paint13_radial_0_3728" cx="0" cy="0" r="1" gradientUnits="userSpaceOnUse" gradientTransform="translate(12 16.3332) rotate(170.538) scale(8.11035)">
<stop offset="0.899365" stop-color="#3B2131" stop-opacity="0"/>
<stop offset="1" stop-color="#422833"/>
</radialGradient>
<radialGradient id="paint14_radial_0_3728" cx="0" cy="0" r="1" gradientUnits="userSpaceOnUse" gradientTransform="translate(29.334 16.3332) rotate(170.538) scale(8.11035)">
<stop offset="0.899365" stop-color="#3B2131" stop-opacity="0"/>
<stop offset="1" stop-color="#422833"/>
</radialGradient>
</defs>
</svg>
