<svg width="40" height="40" viewBox="0 0 40 40" fill="none" xmlns="http://www.w3.org/2000/svg">
<path d="M14.84 3.52712C14.7952 1.62448 16.3014 0.0457678 18.204 0.000973256C20.1066 -0.043807 21.6853 1.46227 21.7301 3.36493L21.7628 4.75279C22.3702 3.681 23.5357 2.97285 24.8526 3.01147C26.7502 3.06712 28.2424 4.65216 28.1836 6.54966L27.8192 18.326L29.8881 15.7593C31.131 14.2175 33.3875 13.9732 34.9314 15.2136C36.4788 16.4568 36.7237 18.7197 35.478 20.265L34.5893 21.3676L34.5806 21.3803C33.7636 22.4267 32.0909 24.5691 29.9923 28.0334C29.3153 29.0489 28.7272 30.1335 28.1401 31.2163C27.3029 32.7603 26.4678 34.3004 25.3801 35.6304C23.2183 38.2961 19.9165 40 16.2169 40C11.7305 40 7.8293 37.4945 5.83625 33.8064L5.82961 33.8178C4.01297 30.5635 3.74548 26.9635 3.65632 25.0355L3.46071 21.5519C3.44975 21.4625 3.44226 21.372 3.43837 21.2803L3.00305 11.0242C2.92541 9.19531 4.33972 7.64724 6.16814 7.55972C7.21182 7.50976 8.16617 7.9463 8.81146 8.66966L8.74437 6.66415C8.68271 4.82112 10.1268 3.27708 11.9699 3.21542C13.173 3.17517 14.2488 3.77673 14.868 4.71208L14.84 3.52712Z" fill="#FFC23E"/>
<path d="M14.84 3.52712C14.7952 1.62448 16.3014 0.0457678 18.204 0.000973256C20.1066 -0.043807 21.6853 1.46227 21.7301 3.36493L21.7628 4.75279C22.3702 3.681 23.5357 2.97285 24.8526 3.01147C26.7502 3.06712 28.2424 4.65216 28.1836 6.54966L27.8192 18.326L29.8881 15.7593C31.131 14.2175 33.3875 13.9732 34.9314 15.2136C36.4788 16.4568 36.7237 18.7197 35.478 20.265L34.5893 21.3676L34.5806 21.3803C33.7636 22.4267 32.0909 24.5691 29.9923 28.0334C29.3153 29.0489 28.7272 30.1335 28.1401 31.2163C27.3029 32.7603 26.4678 34.3004 25.3801 35.6304C23.2183 38.2961 19.9165 40 16.2169 40C11.7305 40 7.8293 37.4945 5.83625 33.8064L5.82961 33.8178C4.01297 30.5635 3.74548 26.9635 3.65632 25.0355L3.46071 21.5519C3.44975 21.4625 3.44226 21.372 3.43837 21.2803L3.00305 11.0242C2.92541 9.19531 4.33972 7.64724 6.16814 7.55972C7.21182 7.50976 8.16617 7.9463 8.81146 8.66966L8.74437 6.66415C8.68271 4.82112 10.1268 3.27708 11.9699 3.21542C13.173 3.17517 14.2488 3.77673 14.868 4.71208L14.84 3.52712Z" fill="url(#paint0_radial_0_4076)"/>
<path d="M14.84 3.52712C14.7952 1.62448 16.3014 0.0457678 18.204 0.000973256C20.1066 -0.043807 21.6853 1.46227 21.7301 3.36493L21.7628 4.75279C22.3702 3.681 23.5357 2.97285 24.8526 3.01147C26.7502 3.06712 28.2424 4.65216 28.1836 6.54966L27.8192 18.326L29.8881 15.7593C31.131 14.2175 33.3875 13.9732 34.9314 15.2136C36.4788 16.4568 36.7237 18.7197 35.478 20.265L34.5893 21.3676L34.5806 21.3803C33.7636 22.4267 32.0909 24.5691 29.9923 28.0334C29.3153 29.0489 28.7272 30.1335 28.1401 31.2163C27.3029 32.7603 26.4678 34.3004 25.3801 35.6304C23.2183 38.2961 19.9165 40 16.2169 40C11.7305 40 7.8293 37.4945 5.83625 33.8064L5.82961 33.8178C4.01297 30.5635 3.74548 26.9635 3.65632 25.0355L3.46071 21.5519C3.44975 21.4625 3.44226 21.372 3.43837 21.2803L3.00305 11.0242C2.92541 9.19531 4.33972 7.64724 6.16814 7.55972C7.21182 7.50976 8.16617 7.9463 8.81146 8.66966L8.74437 6.66415C8.68271 4.82112 10.1268 3.27708 11.9699 3.21542C13.173 3.17517 14.2488 3.77673 14.868 4.71208L14.84 3.52712Z" fill="url(#paint1_radial_0_4076)"/>
<path d="M14.84 3.52712C14.7952 1.62448 16.3014 0.0457678 18.204 0.000973256C20.1066 -0.043807 21.6853 1.46227 21.7301 3.36493L21.7628 4.75279C22.3702 3.681 23.5357 2.97285 24.8526 3.01147C26.7502 3.06712 28.2424 4.65216 28.1836 6.54966L27.8192 18.326L29.8881 15.7593C31.131 14.2175 33.3875 13.9732 34.9314 15.2136C36.4788 16.4568 36.7237 18.7197 35.478 20.265L34.5893 21.3676L34.5806 21.3803C33.7636 22.4267 32.0909 24.5691 29.9923 28.0334C29.3153 29.0489 28.7272 30.1335 28.1401 31.2163C27.3029 32.7603 26.4678 34.3004 25.3801 35.6304C23.2183 38.2961 19.9165 40 16.2169 40C11.7305 40 7.8293 37.4945 5.83625 33.8064L5.82961 33.8178C4.01297 30.5635 3.74548 26.9635 3.65632 25.0355L3.46071 21.5519C3.44975 21.4625 3.44226 21.372 3.43837 21.2803L3.00305 11.0242C2.92541 9.19531 4.33972 7.64724 6.16814 7.55972C7.21182 7.50976 8.16617 7.9463 8.81146 8.66966L8.74437 6.66415C8.68271 4.82112 10.1268 3.27708 11.9699 3.21542C13.173 3.17517 14.2488 3.77673 14.868 4.71208L14.84 3.52712Z" fill="url(#paint2_radial_0_4076)"/>
<path d="M14.84 3.52712C14.7952 1.62448 16.3014 0.0457678 18.204 0.000973256C20.1066 -0.043807 21.6853 1.46227 21.7301 3.36493L21.7628 4.75279C22.3702 3.681 23.5357 2.97285 24.8526 3.01147C26.7502 3.06712 28.2424 4.65216 28.1836 6.54966L27.8192 18.326L29.8881 15.7593C31.131 14.2175 33.3875 13.9732 34.9314 15.2136C36.4788 16.4568 36.7237 18.7197 35.478 20.265L34.5893 21.3676L34.5806 21.3803C33.7636 22.4267 32.0909 24.5691 29.9923 28.0334C29.3153 29.0489 28.7272 30.1335 28.1401 31.2163C27.3029 32.7603 26.4678 34.3004 25.3801 35.6304C23.2183 38.2961 19.9165 40 16.2169 40C11.7305 40 7.8293 37.4945 5.83625 33.8064L5.82961 33.8178C4.01297 30.5635 3.74548 26.9635 3.65632 25.0355L3.46071 21.5519C3.44975 21.4625 3.44226 21.372 3.43837 21.2803L3.00305 11.0242C2.92541 9.19531 4.33972 7.64724 6.16814 7.55972C7.21182 7.50976 8.16617 7.9463 8.81146 8.66966L8.74437 6.66415C8.68271 4.82112 10.1268 3.27708 11.9699 3.21542C13.173 3.17517 14.2488 3.77673 14.868 4.71208L14.84 3.52712Z" fill="url(#paint3_radial_0_4076)"/>
<path d="M3.27072 17.3308L3.00305 11.0244C2.92541 9.19555 4.33972 7.64749 6.16814 7.55996C7.21182 7.51002 8.16617 7.94654 8.81146 8.6699L8.81107 8.65806C9.0661 8.99597 9.45632 9.71843 9.51866 10.7922C9.5989 12.1742 9.76013 15.5957 9.83072 17.1338L3.27072 17.3308Z" fill="url(#paint4_linear_0_4076)"/>
<path d="M3.27072 17.3308L3.00305 11.0244C2.92541 9.19555 4.33972 7.64749 6.16814 7.55996C7.21182 7.51002 8.16617 7.94654 8.81146 8.6699L8.81107 8.65806C9.0661 8.99597 9.45632 9.71843 9.51866 10.7922C9.5989 12.1742 9.76013 15.5957 9.83072 17.1338L3.27072 17.3308Z" fill="url(#paint5_linear_0_4076)"/>
<path d="M3.27072 17.3308L3.00305 11.0244C2.92541 9.19555 4.33972 7.64749 6.16814 7.55996C7.21182 7.51002 8.16617 7.94654 8.81146 8.6699L8.81107 8.65806C9.0661 8.99597 9.45632 9.71843 9.51866 10.7922C9.5989 12.1742 9.76013 15.5957 9.83072 17.1338L3.27072 17.3308Z" fill="url(#paint6_radial_0_4076)"/>
<path d="M7.23415 10.6581C7.091 9.13125 6.32024 8.80808 5.67383 8.80808C7.41247 8.05021 8.70531 9.07556 8.83905 10.6581L9.3963 18.0585L6.61002 20.8003L7.70224 17.6796C7.70224 15.9261 7.36789 12.0848 7.23415 10.6581Z" fill="#FFD93F"/>
<path d="M8.81078 8.65661C9.06583 8.99454 9.45602 9.717 9.51838 10.7907C9.56802 11.6458 9.8481 16.3872 10.0069 18.8407L15.9671 17.1685L15.3347 7.35295C15.3101 6.4525 15.3186 5.51981 14.8676 4.71088C14.2486 3.77553 13.1727 3.17399 11.9695 3.21424C10.1265 3.2759 8.68243 4.81994 8.74409 6.66295L8.81078 8.65661Z" fill="url(#paint7_linear_0_4076)"/>
<path d="M8.81078 8.65661C9.06583 8.99454 9.45602 9.717 9.51838 10.7907C9.56802 11.6458 9.8481 16.3872 10.0069 18.8407L15.9671 17.1685L15.3347 7.35295C15.3101 6.4525 15.3186 5.51981 14.8676 4.71088C14.2486 3.77553 13.1727 3.17399 11.9695 3.21424C10.1265 3.2759 8.68243 4.81994 8.74409 6.66295L8.81078 8.65661Z" fill="url(#paint8_linear_0_4076)"/>
<path d="M8.81078 8.65661C9.06583 8.99454 9.45602 9.717 9.51838 10.7907C9.56802 11.6458 9.8481 16.3872 10.0069 18.8407L15.9671 17.1685L15.3347 7.35295C15.3101 6.4525 15.3186 5.51981 14.8676 4.71088C14.2486 3.77553 13.1727 3.17399 11.9695 3.21424C10.1265 3.2759 8.68243 4.81994 8.74409 6.66295L8.81078 8.65661Z" fill="url(#paint9_linear_0_4076)"/>
<path d="M8.81078 8.65661C9.06583 8.99454 9.45602 9.717 9.51838 10.7907C9.56802 11.6458 9.8481 16.3872 10.0069 18.8407L15.9671 17.1685L15.3347 7.35295C15.3101 6.4525 15.3186 5.51981 14.8676 4.71088C14.2486 3.77553 13.1727 3.17399 11.9695 3.21424C10.1265 3.2759 8.68243 4.81994 8.74409 6.66295L8.81078 8.65661Z" fill="url(#paint10_radial_0_4076)"/>
<path d="M12.9373 6.11448C12.7941 4.5876 12.0233 4.26443 11.377 4.26443C13.1157 3.50657 14.4084 4.53193 14.5422 6.11448L15.1532 15.6276L12.2804 16.9567L13.1017 15.1383C13.3516 14.5846 13.4827 13.9856 13.4583 13.3787C13.3706 11.2012 13.0522 7.33937 12.9373 6.11448Z" fill="#FFD141"/>
<path d="M21.3854 6.13927C21.3854 5.48685 21.6231 4.9073 21.7624 4.7457L21.7633 4.74068L21.7309 3.36493C21.6862 1.46227 20.1075 -0.043807 18.2048 0.000973256C16.3022 0.0457678 14.796 1.62448 14.8408 3.52712L14.8688 4.71205C15.289 5.46612 15.3103 6.32776 15.3311 7.17054C15.3949 9.75321 15.7173 13.1228 15.8834 15.7011H21.2139C21.2496 12.8963 21.3854 7.05827 21.3854 6.13927Z" fill="url(#paint11_linear_0_4076)"/>
<path d="M21.3854 6.13927C21.3854 5.48685 21.6231 4.9073 21.7624 4.7457L21.7633 4.74068L21.7309 3.36493C21.6862 1.46227 20.1075 -0.043807 18.2048 0.000973256C16.3022 0.0457678 14.796 1.62448 14.8408 3.52712L14.8688 4.71205C15.289 5.46612 15.3103 6.32776 15.3311 7.17054C15.3949 9.75321 15.7173 13.1228 15.8834 15.7011H21.2139C21.2496 12.8963 21.3854 7.05827 21.3854 6.13927Z" fill="url(#paint12_linear_0_4076)"/>
<path d="M21.3854 6.13927C21.3854 5.48685 21.6231 4.9073 21.7624 4.7457L21.7633 4.74068L21.7309 3.36493C21.6862 1.46227 20.1075 -0.043807 18.2048 0.000973256C16.3022 0.0457678 14.796 1.62448 14.8408 3.52712L14.8688 4.71205C15.289 5.46612 15.3103 6.32776 15.3311 7.17054C15.3949 9.75321 15.7173 13.1228 15.8834 15.7011H21.2139C21.2496 12.8963 21.3854 7.05827 21.3854 6.13927Z" fill="url(#paint13_linear_0_4076)"/>
<path d="M21.3854 6.13927C21.3854 5.48685 21.6231 4.9073 21.7624 4.7457L21.7633 4.74068L21.7309 3.36493C21.6862 1.46227 20.1075 -0.043807 18.2048 0.000973256C16.3022 0.0457678 14.796 1.62448 14.8408 3.52712L14.8688 4.71205C15.289 5.46612 15.3103 6.32776 15.3311 7.17054C15.3949 9.75321 15.7173 13.1228 15.8834 15.7011H21.2139C21.2496 12.8963 21.3854 7.05827 21.3854 6.13927Z" fill="url(#paint14_radial_0_4076)"/>
<path d="M18.8379 1.4664V15.889H20.5538C20.6311 12.8591 20.7856 6.26156 20.7856 4.10977C20.7856 1.95797 19.4871 1.45094 18.8379 1.4664Z" fill="#FFD140"/>
<path d="M21.7616 4.74512C21.6222 4.90674 21.3844 5.48629 21.3844 6.13869C21.3844 9.85608 21.2129 12.587 21.2129 16.3049L27.8191 21.0352V18.3228L28.1836 6.54909C28.2424 4.65158 26.75 3.06655 24.8525 3.0109C23.5356 2.97229 22.3701 3.68042 21.7627 4.75223L21.7624 4.74223L21.7616 4.74512Z" fill="url(#paint15_linear_0_4076)"/>
<path d="M21.7616 4.74512C21.6222 4.90674 21.3844 5.48629 21.3844 6.13869C21.3844 9.85608 21.2129 12.587 21.2129 16.3049L27.8191 21.0352V18.3228L28.1836 6.54909C28.2424 4.65158 26.75 3.06655 24.8525 3.0109C23.5356 2.97229 22.3701 3.68042 21.7627 4.75223L21.7624 4.74223L21.7616 4.74512Z" fill="url(#paint16_linear_0_4076)"/>
<path d="M21.7616 4.74512C21.6222 4.90674 21.3844 5.48629 21.3844 6.13869C21.3844 9.85608 21.2129 12.587 21.2129 16.3049L27.8191 21.0352V18.3228L28.1836 6.54909C28.2424 4.65158 26.75 3.06655 24.8525 3.0109C23.5356 2.97229 22.3701 3.68042 21.7627 4.75223L21.7624 4.74223L21.7616 4.74512Z" fill="url(#paint17_radial_0_4076)"/>
<path d="M25.4492 4.42002V18.8426H27.165C27.2423 15.8128 27.3969 9.21517 27.3969 7.06338C27.3969 4.91159 26.0985 4.40457 25.4492 4.42002Z" fill="#FFDD3B"/>
<path d="M27.9966 18.1049L29.888 15.7585C31.1308 14.2168 33.3874 13.9725 34.9312 15.2128C36.4786 16.4561 36.7234 18.7191 35.4777 20.2643L34.5891 21.3669L34.5804 21.3796C33.7634 22.426 32.0907 24.5685 29.9921 28.0328C29.3824 28.9473 28.8447 29.9181 28.3149 30.893C23.8103 28.4853 24.4672 23.9559 25.47 21.8234L27.9966 18.1049Z" fill="url(#paint18_radial_0_4076)"/>
<path d="M14.1543 16.5365C19.3483 15.1453 26.1654 17.7577 27.0929 19.0871V22.0551C23.8466 18.1133 18.5136 16.954 14.1543 16.5365Z" fill="url(#paint19_linear_0_4076)"/>
<path d="M14.84 3.52712C14.7952 1.62448 16.3014 0.0457678 18.204 0.000973256C20.1066 -0.043807 21.6853 1.46227 21.7301 3.36493L21.7628 4.75279C22.3702 3.681 23.5357 2.97285 24.8526 3.01147C26.7502 3.06712 28.2424 4.65216 28.1836 6.54966L27.8192 18.326L29.8881 15.7593C31.131 14.2175 33.3875 13.9732 34.9314 15.2136C36.4788 16.4568 36.7237 18.7197 35.478 20.265L34.5893 21.3676L34.5806 21.3803C33.7636 22.4267 32.0909 24.5691 29.9923 28.0334C29.3153 29.0489 28.7272 30.1335 28.1401 31.2163C27.3029 32.7603 26.4678 34.3004 25.3801 35.6304C23.2183 38.2961 19.9165 40 16.2169 40C11.7305 40 7.8293 37.4945 5.83625 33.8064L5.82961 33.8178C4.01297 30.5635 3.74548 26.9635 3.65632 25.0355L3.46071 21.5519C3.44975 21.4625 3.44226 21.372 3.43837 21.2803L3.00305 11.0242C2.92541 9.19531 4.33972 7.64724 6.16814 7.55972C7.21182 7.50976 8.16617 7.9463 8.81146 8.66966L8.74437 6.66415C8.68271 4.82112 10.1268 3.27708 11.9699 3.21542C13.173 3.17517 14.2488 3.77673 14.868 4.71208L14.84 3.52712Z" fill="url(#paint20_radial_0_4076)"/>
<path d="M14.84 3.52712C14.7952 1.62448 16.3014 0.0457678 18.204 0.000973256C20.1066 -0.043807 21.6853 1.46227 21.7301 3.36493L21.7628 4.75279C22.3702 3.681 23.5357 2.97285 24.8526 3.01147C26.7502 3.06712 28.2424 4.65216 28.1836 6.54966L27.8192 18.326L29.8881 15.7593C31.131 14.2175 33.3875 13.9732 34.9314 15.2136C36.4788 16.4568 36.7237 18.7197 35.478 20.265L34.5893 21.3676L34.5806 21.3803C33.7636 22.4267 32.0909 24.5691 29.9923 28.0334C29.3153 29.0489 28.7272 30.1335 28.1401 31.2163C27.3029 32.7603 26.4678 34.3004 25.3801 35.6304C23.2183 38.2961 19.9165 40 16.2169 40C11.7305 40 7.8293 37.4945 5.83625 33.8064L5.82961 33.8178C4.01297 30.5635 3.74548 26.9635 3.65632 25.0355L3.46071 21.5519C3.44975 21.4625 3.44226 21.372 3.43837 21.2803L3.00305 11.0242C2.92541 9.19531 4.33972 7.64724 6.16814 7.55972C7.21182 7.50976 8.16617 7.9463 8.81146 8.66966L8.74437 6.66415C8.68271 4.82112 10.1268 3.27708 11.9699 3.21542C13.173 3.17517 14.2488 3.77673 14.868 4.71208L14.84 3.52712Z" fill="url(#paint21_radial_0_4076)"/>
<path d="M14.84 3.52712C14.7952 1.62448 16.3014 0.0457678 18.204 0.000973256C20.1066 -0.043807 21.6853 1.46227 21.7301 3.36493L21.7628 4.75279C22.3702 3.681 23.5357 2.97285 24.8526 3.01147C26.7502 3.06712 28.2424 4.65216 28.1836 6.54966L27.8192 18.326L29.8881 15.7593C31.131 14.2175 33.3875 13.9732 34.9314 15.2136C36.4788 16.4568 36.7237 18.7197 35.478 20.265L34.5893 21.3676L34.5806 21.3803C33.7636 22.4267 32.0909 24.5691 29.9923 28.0334C29.3153 29.0489 28.7272 30.1335 28.1401 31.2163C27.3029 32.7603 26.4678 34.3004 25.3801 35.6304C23.2183 38.2961 19.9165 40 16.2169 40C11.7305 40 7.8293 37.4945 5.83625 33.8064L5.82961 33.8178C4.01297 30.5635 3.74548 26.9635 3.65632 25.0355L3.46071 21.5519C3.44975 21.4625 3.44226 21.372 3.43837 21.2803L3.00305 11.0242C2.92541 9.19531 4.33972 7.64724 6.16814 7.55972C7.21182 7.50976 8.16617 7.9463 8.81146 8.66966L8.74437 6.66415C8.68271 4.82112 10.1268 3.27708 11.9699 3.21542C13.173 3.17517 14.2488 3.77673 14.868 4.71208L14.84 3.52712Z" fill="url(#paint22_radial_0_4076)"/>
<path d="M14.84 3.52712C14.7952 1.62448 16.3014 0.0457678 18.204 0.000973256C20.1066 -0.043807 21.6853 1.46227 21.7301 3.36493L21.7628 4.75279C22.3702 3.681 23.5357 2.97285 24.8526 3.01147C26.7502 3.06712 28.2424 4.65216 28.1836 6.54966L27.8192 18.326L29.8881 15.7593C31.131 14.2175 33.3875 13.9732 34.9314 15.2136C36.4788 16.4568 36.7237 18.7197 35.478 20.265L34.5893 21.3676L34.5806 21.3803C33.7636 22.4267 32.0909 24.5691 29.9923 28.0334C29.3153 29.0489 28.7272 30.1335 28.1401 31.2163C27.3029 32.7603 26.4678 34.3004 25.3801 35.6304C23.2183 38.2961 19.9165 40 16.2169 40C11.7305 40 7.8293 37.4945 5.83625 33.8064L5.82961 33.8178C4.01297 30.5635 3.74548 26.9635 3.65632 25.0355L3.46071 21.5519C3.44975 21.4625 3.44226 21.372 3.43837 21.2803L3.00305 11.0242C2.92541 9.19531 4.33972 7.64724 6.16814 7.55972C7.21182 7.50976 8.16617 7.9463 8.81146 8.66966L8.74437 6.66415C8.68271 4.82112 10.1268 3.27708 11.9699 3.21542C13.173 3.17517 14.2488 3.77673 14.868 4.71208L14.84 3.52712Z" fill="url(#paint23_radial_0_4076)"/>
<path d="M14.84 3.52712C14.7952 1.62448 16.3014 0.0457678 18.204 0.000973256C20.1066 -0.043807 21.6853 1.46227 21.7301 3.36493L21.7628 4.75279C22.3702 3.681 23.5357 2.97285 24.8526 3.01147C26.7502 3.06712 28.2424 4.65216 28.1836 6.54966L27.8192 18.326L29.8881 15.7593C31.131 14.2175 33.3875 13.9732 34.9314 15.2136C36.4788 16.4568 36.7237 18.7197 35.478 20.265L34.5893 21.3676L34.5806 21.3803C33.7636 22.4267 32.0909 24.5691 29.9923 28.0334C29.3153 29.0489 28.7272 30.1335 28.1401 31.2163C27.3029 32.7603 26.4678 34.3004 25.3801 35.6304C23.2183 38.2961 19.9165 40 16.2169 40C11.7305 40 7.8293 37.4945 5.83625 33.8064L5.82961 33.8178C4.01297 30.5635 3.74548 26.9635 3.65632 25.0355L3.46071 21.5519C3.44975 21.4625 3.44226 21.372 3.43837 21.2803L3.00305 11.0242C2.92541 9.19531 4.33972 7.64724 6.16814 7.55972C7.21182 7.50976 8.16617 7.9463 8.81146 8.66966L8.74437 6.66415C8.68271 4.82112 10.1268 3.27708 11.9699 3.21542C13.173 3.17517 14.2488 3.77673 14.868 4.71208L14.84 3.52712Z" fill="url(#paint24_radial_0_4076)" fill-opacity="0.6"/>
<defs>
<radialGradient id="paint0_radial_0_4076" cx="0" cy="0" r="1" gradientUnits="userSpaceOnUse" gradientTransform="translate(32.7219 22.0448) rotate(161.732) scale(30.46 46.4424)">
<stop offset="0.817521" stop-color="#E99329" stop-opacity="0"/>
<stop offset="1" stop-color="#E99329"/>
</radialGradient>
<radialGradient id="paint1_radial_0_4076" cx="0" cy="0" r="1" gradientUnits="userSpaceOnUse" gradientTransform="translate(21.5794 8.32224) rotate(103.505) scale(35.5269 24.525)">
<stop offset="0.750766" stop-color="#F88456" stop-opacity="0"/>
<stop offset="1" stop-color="#F88456"/>
</radialGradient>
<radialGradient id="paint2_radial_0_4076" cx="0" cy="0" r="1" gradientUnits="userSpaceOnUse" gradientTransform="translate(19.6364 8.31771) rotate(98.2119) scale(32.7231 22.5894)">
<stop offset="0.937186" stop-color="#F27A74" stop-opacity="0"/>
<stop offset="1" stop-color="#F27A74"/>
</radialGradient>
<radialGradient id="paint3_radial_0_4076" cx="0" cy="0" r="1" gradientUnits="userSpaceOnUse" gradientTransform="translate(34.2051 22.8956) rotate(-144.583) scale(2.46163 10.5342)">
<stop stop-color="#F6B44B"/>
<stop offset="1" stop-color="#F6B44B" stop-opacity="0"/>
</radialGradient>
<linearGradient id="paint4_linear_0_4076" x1="9.83072" y1="12.7761" x2="7.9472" y2="13.0435" gradientUnits="userSpaceOnUse">
<stop stop-color="#E79F08"/>
<stop offset="1" stop-color="#E79F08" stop-opacity="0"/>
</linearGradient>
<linearGradient id="paint5_linear_0_4076" x1="10.0871" y1="17.3308" x2="8.12552" y2="16.2087" gradientUnits="userSpaceOnUse">
<stop stop-color="#FFC23E"/>
<stop offset="1" stop-color="#FFC23E" stop-opacity="0"/>
</linearGradient>
<radialGradient id="paint6_radial_0_4076" cx="0" cy="0" r="1" gradientUnits="userSpaceOnUse" gradientTransform="translate(6.29772 7.27033) rotate(87.8255) scale(3.10058 7.74239)">
<stop stop-color="#E8AD3C"/>
<stop offset="1" stop-color="#E8AD3C" stop-opacity="0"/>
</radialGradient>
<linearGradient id="paint7_linear_0_4076" x1="15.8822" y1="10.4564" x2="14.0098" y2="10.5901" gradientUnits="userSpaceOnUse">
<stop stop-color="#E79F08"/>
<stop offset="1" stop-color="#E79F08" stop-opacity="0"/>
</linearGradient>
<linearGradient id="paint8_linear_0_4076" x1="8.74218" y1="11.8516" x2="12.1618" y2="11.68" gradientUnits="userSpaceOnUse">
<stop stop-color="#DF8F0D"/>
<stop offset="1" stop-color="#DF8F0D" stop-opacity="0"/>
</linearGradient>
<linearGradient id="paint9_linear_0_4076" x1="12.3546" y1="18.4119" x2="11.0789" y2="13.6954" gradientUnits="userSpaceOnUse">
<stop offset="0.405208" stop-color="#FFC23E"/>
<stop offset="1" stop-color="#FFC23E" stop-opacity="0"/>
</linearGradient>
<radialGradient id="paint10_radial_0_4076" cx="0" cy="0" r="1" gradientUnits="userSpaceOnUse" gradientTransform="translate(11.1647 2.50412) rotate(77.9639) scale(4.78165 8.47919)">
<stop stop-color="#E1AE3F"/>
<stop offset="1" stop-color="#E8AD3C" stop-opacity="0"/>
</radialGradient>
<linearGradient id="paint11_linear_0_4076" x1="15.3123" y1="8.77732" x2="18.3017" y2="8.62789" gradientUnits="userSpaceOnUse">
<stop stop-color="#E59714"/>
<stop offset="1" stop-color="#E59714" stop-opacity="0"/>
</linearGradient>
<linearGradient id="paint12_linear_0_4076" x1="21.4827" y1="9.16378" x2="20.2808" y2="9.15088" gradientUnits="userSpaceOnUse">
<stop stop-color="#E59714"/>
<stop offset="1" stop-color="#E59714" stop-opacity="0"/>
</linearGradient>
<linearGradient id="paint13_linear_0_4076" x1="18.3017" y1="16.5103" x2="18.3017" y2="13.9327" gradientUnits="userSpaceOnUse">
<stop offset="0.347826" stop-color="#FFC23E"/>
<stop offset="1" stop-color="#FFC23E" stop-opacity="0"/>
</linearGradient>
<radialGradient id="paint14_radial_0_4076" cx="0" cy="0" r="1" gradientUnits="userSpaceOnUse" gradientTransform="translate(22.1784 12.6883) rotate(-116.651) scale(13.854 16.261)">
<stop offset="0.869582" stop-color="#D8A13D" stop-opacity="0"/>
<stop offset="1" stop-color="#D8A13D"/>
</radialGradient>
<linearGradient id="paint15_linear_0_4076" x1="20.9253" y1="12.0223" x2="24.6984" y2="12.156" gradientUnits="userSpaceOnUse">
<stop stop-color="#E69717"/>
<stop offset="1" stop-color="#E69717" stop-opacity="0"/>
</linearGradient>
<linearGradient id="paint16_linear_0_4076" x1="22.9194" y1="17.6034" x2="24.218" y2="15.0992" gradientUnits="userSpaceOnUse">
<stop stop-color="#FFC23E"/>
<stop offset="1" stop-color="#FFC23E" stop-opacity="0"/>
</linearGradient>
<radialGradient id="paint17_radial_0_4076" cx="0" cy="0" r="1" gradientUnits="userSpaceOnUse" gradientTransform="translate(28.6033 17.5763) rotate(-113.761) scale(15.5319 16.7694)">
<stop offset="0.869582" stop-color="#D8A13D" stop-opacity="0"/>
<stop offset="1" stop-color="#D8A13D"/>
</radialGradient>
<radialGradient id="paint18_radial_0_4076" cx="0" cy="0" r="1" gradientUnits="userSpaceOnUse" gradientTransform="translate(28.443 16.392) rotate(48.5035) scale(2.61823 10.0216)">
<stop stop-color="#E7A30E"/>
<stop offset="1" stop-color="#E7A30E" stop-opacity="0"/>
</radialGradient>
<linearGradient id="paint19_linear_0_4076" x1="25.4234" y1="19.8292" x2="8.21835" y2="16.9076" gradientUnits="userSpaceOnUse">
<stop stop-color="#FFDD3B"/>
<stop offset="1" stop-color="#FFDD3B" stop-opacity="0"/>
</linearGradient>
<radialGradient id="paint20_radial_0_4076" cx="0" cy="0" r="1" gradientUnits="userSpaceOnUse" gradientTransform="translate(35.6839 16.3172) rotate(145.784) scale(3.42042 4.0092)">
<stop stop-color="#FFE84A"/>
<stop offset="1" stop-color="#FFE84A" stop-opacity="0"/>
</radialGradient>
<radialGradient id="paint21_radial_0_4076" cx="0" cy="0" r="1" gradientUnits="userSpaceOnUse" gradientTransform="translate(27.6511 4.02302) rotate(130.365) scale(3.95962 4.27571)">
<stop stop-color="#FFE84A"/>
<stop offset="1" stop-color="#FFE84A" stop-opacity="0"/>
</radialGradient>
<radialGradient id="paint22_radial_0_4076" cx="0" cy="0" r="1" gradientUnits="userSpaceOnUse" gradientTransform="translate(21.3155 0.478049) rotate(112.533) scale(3.83796 4.06476)">
<stop offset="0.32493" stop-color="#FFE84A"/>
<stop offset="1" stop-color="#FFE84A" stop-opacity="0"/>
</radialGradient>
<radialGradient id="paint23_radial_0_4076" cx="0" cy="0" r="1" gradientUnits="userSpaceOnUse" gradientTransform="translate(12.8302 5.53152) rotate(122.8) scale(2.01894 2.3626)">
<stop stop-color="#FFD148"/>
<stop offset="1" stop-color="#FFCF41" stop-opacity="0"/>
</radialGradient>
<radialGradient id="paint24_radial_0_4076" cx="0" cy="0" r="1" gradientUnits="userSpaceOnUse" gradientTransform="translate(6.94704 9.90616) rotate(120.411) scale(2.01153 2.17209)">
<stop stop-color="#FFE84A"/>
<stop offset="1" stop-color="#FFE84A" stop-opacity="0"/>
</radialGradient>
</defs>
</svg>
