<svg width="40" height="40" viewBox="0 0 40 40" fill="none" xmlns="http://www.w3.org/2000/svg">
<path d="M14.5732 4.72995C14.5732 2.11768 16.6908 0 19.3031 0C21.9153 0 24.0331 2.11768 24.0331 4.72995V10.1732C24.0331 10.6374 24.0009 11.1002 23.9291 11.563C23.9029 11.7319 23.8767 11.9007 23.8605 12.0692C23.8089 12.602 23.8719 13.298 24.234 13.7654L23.3692 14.5997C27.706 16.8154 30.6777 21.3462 30.6777 26.5756C30.6777 27.9923 30.4595 29.3577 30.0552 30.6398L28.622 39.9982H16.9695V39.9942C9.77343 39.8393 4 35.1467 4 26.5756C4 21.5372 6.41249 17.4812 10.0623 15.1941L10.0532 15.1868C10.3018 15.014 10.595 14.8383 10.9094 14.6498L10.9117 14.6484C11.9468 14.0279 13.2118 13.2695 13.8793 12.0292C14.4581 10.954 14.5704 9.20885 14.5704 8.3998L14.5732 8.40103V4.72995Z" fill="url(#paint0_linear_0_4035)"/>
<path d="M14.5732 4.72995C14.5732 2.11768 16.6908 0 19.3031 0C21.9153 0 24.0331 2.11768 24.0331 4.72995V10.1732C24.0331 10.6374 24.0009 11.1002 23.9291 11.563C23.9029 11.7319 23.8767 11.9007 23.8605 12.0692C23.8089 12.602 23.8719 13.298 24.234 13.7654L23.3692 14.5997C27.706 16.8154 30.6777 21.3462 30.6777 26.5756C30.6777 27.9923 30.4595 29.3577 30.0552 30.6398L28.622 39.9982H16.9695V39.9942C9.77343 39.8393 4 35.1467 4 26.5756C4 21.5372 6.41249 17.4812 10.0623 15.1941L10.0532 15.1868C10.3018 15.014 10.595 14.8383 10.9094 14.6498L10.9117 14.6484C11.9468 14.0279 13.2118 13.2695 13.8793 12.0292C14.4581 10.954 14.5704 9.20885 14.5704 8.3998L14.5732 8.40103V4.72995Z" fill="url(#paint1_radial_0_4035)"/>
<path d="M14.5732 4.72995C14.5732 2.11768 16.6908 0 19.3031 0C21.9153 0 24.0331 2.11768 24.0331 4.72995V10.1732C24.0331 10.6374 24.0009 11.1002 23.9291 11.563C23.9029 11.7319 23.8767 11.9007 23.8605 12.0692C23.8089 12.602 23.8719 13.298 24.234 13.7654L23.3692 14.5997C27.706 16.8154 30.6777 21.3462 30.6777 26.5756C30.6777 27.9923 30.4595 29.3577 30.0552 30.6398L28.622 39.9982H16.9695V39.9942C9.77343 39.8393 4 35.1467 4 26.5756C4 21.5372 6.41249 17.4812 10.0623 15.1941L10.0532 15.1868C10.3018 15.014 10.595 14.8383 10.9094 14.6498L10.9117 14.6484C11.9468 14.0279 13.2118 13.2695 13.8793 12.0292C14.4581 10.954 14.5704 9.20885 14.5704 8.3998L14.5732 8.40103V4.72995Z" fill="url(#paint2_radial_0_4035)"/>
<path d="M14.5732 4.72995C14.5732 2.11768 16.6908 0 19.3031 0C21.9153 0 24.0331 2.11768 24.0331 4.72995V10.1732C24.0331 10.6374 24.0009 11.1002 23.9291 11.563C23.9029 11.7319 23.8767 11.9007 23.8605 12.0692C23.8089 12.602 23.8719 13.298 24.234 13.7654L23.3692 14.5997C27.706 16.8154 30.6777 21.3462 30.6777 26.5756C30.6777 27.9923 30.4595 29.3577 30.0552 30.6398L28.622 39.9982H16.9695V39.9942C9.77343 39.8393 4 35.1467 4 26.5756C4 21.5372 6.41249 17.4812 10.0623 15.1941L10.0532 15.1868C10.3018 15.014 10.595 14.8383 10.9094 14.6498L10.9117 14.6484C11.9468 14.0279 13.2118 13.2695 13.8793 12.0292C14.4581 10.954 14.5704 9.20885 14.5704 8.3998L14.5732 8.40103V4.72995Z" fill="url(#paint3_radial_0_4035)"/>
<path d="M14.5732 4.72995C14.5732 2.11768 16.6908 0 19.3031 0C21.9153 0 24.0331 2.11768 24.0331 4.72995V10.1732C24.0331 10.6374 24.0009 11.1002 23.9291 11.563C23.9029 11.7319 23.8767 11.9007 23.8605 12.0692C23.8089 12.602 23.8719 13.298 24.234 13.7654L23.3692 14.5997C27.706 16.8154 30.6777 21.3462 30.6777 26.5756C30.6777 27.9923 30.4595 29.3577 30.0552 30.6398L28.622 39.9982H16.9695V39.9942C9.77343 39.8393 4 35.1467 4 26.5756C4 21.5372 6.41249 17.4812 10.0623 15.1941L10.0532 15.1868C10.3018 15.014 10.595 14.8383 10.9094 14.6498L10.9117 14.6484C11.9468 14.0279 13.2118 13.2695 13.8793 12.0292C14.4581 10.954 14.5704 9.20885 14.5704 8.3998L14.5732 8.40103V4.72995Z" fill="url(#paint4_linear_0_4035)"/>
<path d="M30.9857 18.4661C30.9857 16.439 29.3425 14.7958 27.3155 14.7958H23.2501C21.2231 14.7958 19.5798 16.439 19.5798 18.4661C19.5798 19.5964 20.0908 20.6074 20.8944 21.2807C20.006 21.953 19.4316 23.02 19.4316 24.2184C19.4316 25.3405 19.9352 26.3473 20.7286 27.0229C19.9352 27.6961 19.4316 28.7005 19.4316 29.8225V30.0036C19.4316 31.0093 19.8361 31.9205 20.4911 32.5834C19.837 33.2308 19.4316 34.1291 19.4316 35.1223C19.4316 37.0948 21.0306 38.6939 23.0031 38.6939H27.0356C29.0082 38.6939 30.6072 37.0948 30.6072 35.1223C30.6072 34.4694 30.432 33.8574 30.1261 33.3309C31.3775 32.7462 32.2448 31.4762 32.2448 30.0036V29.8225C32.2448 28.6868 31.7289 27.6717 30.9189 26.9984C31.6958 26.3231 32.1872 25.327 32.1872 24.2184C32.1872 22.7481 31.3226 21.4753 30.0741 20.887C30.6417 20.2409 30.9857 19.3936 30.9857 18.4661Z" fill="url(#paint5_linear_0_4035)"/>
<path d="M34.2637 16.9306V16.9306C34.2637 14.6189 32.3897 12.7449 30.078 12.7449H25.4419C23.1303 12.7449 21.2563 14.6189 21.2563 16.9306V16.9306C21.2563 19.2422 23.1303 21.1162 25.4419 21.1162H30.078C32.3897 21.1162 34.2637 19.2422 34.2637 16.9306Z" fill="url(#paint6_linear_0_4035)"/>
<path d="M34.2637 16.9306V16.9306C34.2637 14.6189 32.3897 12.7449 30.078 12.7449H25.4419C23.1303 12.7449 21.2563 14.6189 21.2563 16.9306V16.9306C21.2563 19.2422 23.1303 21.1162 25.4419 21.1162H30.078C32.3897 21.1162 34.2637 19.2422 34.2637 16.9306Z" fill="url(#paint7_radial_0_4035)"/>
<path d="M29.7571 40.0009C32.0065 40.0009 33.8301 38.1773 33.8301 35.9279C33.8301 33.6784 32.0065 31.8549 29.7571 31.8549H25.1584C22.909 31.8549 21.0854 33.6784 21.0854 35.9279C21.0854 38.1773 22.909 40.0009 25.1584 40.0009H29.7571Z" fill="url(#paint8_linear_0_4035)"/>
<path d="M29.7571 40.0009C32.0065 40.0009 33.8301 38.1773 33.8301 35.9279C33.8301 33.6784 32.0065 31.8549 29.7571 31.8549H25.1584C22.909 31.8549 21.0854 33.6784 21.0854 35.9279C21.0854 38.1773 22.909 40.0009 25.1584 40.0009H29.7571Z" fill="url(#paint9_radial_0_4035)"/>
<path d="M29.7571 40.0009C32.0065 40.0009 33.8301 38.1773 33.8301 35.9279C33.8301 33.6784 32.0065 31.8549 29.7571 31.8549H25.1584C22.909 31.8549 21.0854 33.6784 21.0854 35.9279C21.0854 38.1773 22.909 40.0009 25.1584 40.0009H29.7571Z" fill="url(#paint10_radial_0_4035)"/>
<path d="M29.7571 39.9991C32.0065 39.9991 33.8301 38.1756 33.8301 35.9261C33.8301 33.6766 32.0065 31.8531 29.7571 31.8531H25.1584C22.909 31.8531 21.0854 33.6766 21.0854 35.9261C21.0854 38.1756 22.909 39.9991 25.1584 39.9991H29.7571Z" fill="url(#paint11_linear_0_4035)"/>
<path d="M29.7571 39.9991C32.0065 39.9991 33.8301 38.1756 33.8301 35.9261C33.8301 33.6766 32.0065 31.8531 29.7571 31.8531H25.1584C22.909 31.8531 21.0854 33.6766 21.0854 35.9261C21.0854 38.1756 22.909 39.9991 25.1584 39.9991H29.7571Z" fill="url(#paint12_radial_0_4035)"/>
<path d="M31.8129 34.2715H26.212C25.6257 34.2715 25.1504 34.7468 25.1504 35.3331C25.1504 35.9194 25.6257 36.3947 26.212 36.3947H31.8129C32.3992 36.3947 32.8745 35.9194 32.8745 35.3331C32.8745 34.7468 32.3992 34.2715 31.8129 34.2715Z" fill="url(#paint13_linear_0_4035)"/>
<path d="M35.6973 29.985V29.985C35.6973 27.6163 33.7771 25.6961 31.4084 25.6961H25.3739C23.0052 25.6961 21.085 27.6163 21.085 29.985V29.985C21.085 32.3537 23.0052 34.2739 25.3739 34.2739H31.4084C33.7771 34.2739 35.6973 32.3537 35.6973 29.985Z" fill="#C4C4C4" fill-opacity="0.66"/>
<path d="M35.6973 30.087V29.8805C35.6973 27.5688 33.8233 25.6948 31.5116 25.6948H25.2707C22.959 25.6948 21.085 27.5688 21.085 29.8805V30.087C21.085 32.3986 22.959 34.2726 25.2707 34.2726H31.5116C33.8233 34.2726 35.6973 32.3986 35.6973 30.087Z" fill="url(#paint14_linear_0_4035)"/>
<path d="M35.6973 30.087V29.8805C35.6973 27.5688 33.8233 25.6948 31.5116 25.6948H25.2707C22.959 25.6948 21.085 27.5688 21.085 29.8805V30.087C21.085 32.3986 22.959 34.2726 25.2707 34.2726H31.5116C33.8233 34.2726 35.6973 32.3986 35.6973 30.087Z" fill="url(#paint15_radial_0_4035)"/>
<path d="M35.6973 30.087V29.8805C35.6973 27.5688 33.8233 25.6948 31.5116 25.6948H25.2707C22.959 25.6948 21.085 27.5688 21.085 29.8805V30.087C21.085 32.3986 22.959 34.2726 25.2707 34.2726H31.5116C33.8233 34.2726 35.6973 32.3986 35.6973 30.087Z" fill="url(#paint16_radial_0_4035)"/>
<path d="M33.2007 28.7076H25.6515C25.0651 28.7076 24.5898 29.1829 24.5898 29.7693C24.5898 30.3556 25.0651 30.8309 25.6515 30.8309H33.2007C33.787 30.8309 34.2623 30.3556 34.2623 29.7693C34.2623 29.1829 33.787 28.7076 33.2007 28.7076Z" fill="url(#paint17_linear_0_4035)"/>
<path d="M35.6328 23.5009V23.4821C35.6328 21.1704 33.7588 19.2964 31.4472 19.2964H25.2719C22.9603 19.2964 21.0863 21.1704 21.0863 23.4821V23.5009C21.0863 25.8125 22.9603 27.6865 25.2719 27.6865H31.4472C33.7588 27.6865 35.6328 25.8125 35.6328 23.5009Z" fill="url(#paint18_linear_0_4035)"/>
<path d="M35.6328 23.5009V23.4821C35.6328 21.1704 33.7588 19.2964 31.4472 19.2964H25.2719C22.9603 19.2964 21.0863 21.1704 21.0863 23.4821V23.5009C21.0863 25.8125 22.9603 27.6865 25.2719 27.6865H31.4472C33.7588 27.6865 35.6328 25.8125 35.6328 23.5009Z" fill="url(#paint19_radial_0_4035)"/>
<path d="M19.3026 0C16.6903 0 14.5727 2.11768 14.5727 4.72994V8.40103L14.57 8.3998C14.57 9.20885 14.4576 10.954 13.8788 12.0292C13.2113 13.2696 11.9463 14.0279 10.9112 14.6484C10.596 14.8374 10.302 15.0137 10.0527 15.1868C11.4836 16.333 14.4138 18.623 14.4857 18.5691C14.5576 18.5152 17.8566 16.7637 19.4973 15.8947L19.4274 14.9016C21.982 14.8352 24.0326 12.7437 24.0326 10.1732V4.72994C24.0326 2.11768 21.9148 0 19.3026 0Z" fill="url(#paint20_radial_0_4035)"/>
<path d="M19.3026 0C16.6903 0 14.5727 2.11768 14.5727 4.72994V8.40103L14.57 8.3998C14.57 9.20885 14.4576 10.954 13.8788 12.0292C13.2113 13.2696 11.9463 14.0279 10.9112 14.6484C10.596 14.8374 10.302 15.0137 10.0527 15.1868C11.4836 16.333 14.4138 18.623 14.4857 18.5691C14.5576 18.5152 17.8566 16.7637 19.4973 15.8947L19.4274 14.9016C21.982 14.8352 24.0326 12.7437 24.0326 10.1732V4.72994C24.0326 2.11768 21.9148 0 19.3026 0Z" fill="url(#paint21_radial_0_4035)"/>
<path d="M16.3097 1.06714C15.2491 1.93453 14.5723 3.2534 14.5723 4.73036V5.00669H16.7102C16.7177 4.72202 16.7034 3.99314 16.5865 3.35487L16.5623 3.22344C16.4439 2.58046 16.3082 1.84327 16.3097 1.06714Z" fill="#FFBF71"/>
<path d="M16.3097 1.06714C15.2491 1.93453 14.5723 3.2534 14.5723 4.73036V5.00669H16.7102C16.7177 4.72202 16.7034 3.99314 16.5865 3.35487L16.5623 3.22344C16.4439 2.58046 16.3082 1.84327 16.3097 1.06714Z" fill="url(#paint22_radial_0_4035)"/>
<path d="M31.0648 13.8857H25.8579C24.8588 13.8857 24.0488 14.6957 24.0488 15.6948V15.6948C24.0488 16.6939 24.8588 17.5039 25.8579 17.5039H31.0648C32.0639 17.5039 32.8739 16.6939 32.8739 15.6948V15.6948C32.8739 14.6957 32.0639 13.8857 31.0648 13.8857Z" fill="url(#paint23_linear_0_4035)"/>
<path d="M32.4539 20.3245H25.7563C24.7572 20.3245 23.9473 21.1344 23.9473 22.1335V22.1335C23.9473 23.1327 24.7572 23.9426 25.7563 23.9426H32.4539C33.453 23.9426 34.2629 23.1327 34.2629 22.1335V22.1335C34.2629 21.1344 33.453 20.3245 32.4539 20.3245Z" fill="url(#paint24_linear_0_4035)"/>
<path d="M22.8399 3.84742C22.8399 2.70941 21.9173 1.78687 20.7793 1.78687C19.6413 1.78687 18.7188 2.70941 18.7188 3.84742V11.2291C18.7188 12.3671 19.6413 13.2896 20.7793 13.2896C21.9173 13.2896 22.8399 12.3671 22.8399 11.2291V3.84742Z" fill="url(#paint25_linear_0_4035)"/>
<defs>
<linearGradient id="paint0_linear_0_4035" x1="24.6218" y1="6.86036" x2="10.1487" y2="37.3346" gradientUnits="userSpaceOnUse">
<stop stop-color="#FFCA44"/>
<stop offset="1" stop-color="#F8A528"/>
</linearGradient>
<radialGradient id="paint1_radial_0_4035" cx="0" cy="0" r="1" gradientUnits="userSpaceOnUse" gradientTransform="translate(26.3275 4.27819) rotate(141.116) scale(7.21405 21.2919)">
<stop stop-color="#FFE34C"/>
<stop offset="1" stop-color="#FFE34C" stop-opacity="0"/>
</radialGradient>
<radialGradient id="paint2_radial_0_4035" cx="0" cy="0" r="1" gradientUnits="userSpaceOnUse" gradientTransform="translate(13.1944 19.9991) rotate(125.191) scale(10.687 7.7418)">
<stop stop-color="#FFCA2E"/>
<stop offset="1" stop-color="#FFCA2E" stop-opacity="0"/>
</radialGradient>
<radialGradient id="paint3_radial_0_4035" cx="0" cy="0" r="1" gradientUnits="userSpaceOnUse" gradientTransform="translate(24.7878 23.389) rotate(146.743) scale(23.2873 40.7536)">
<stop offset="0.681103" stop-color="#E18E3F" stop-opacity="0"/>
<stop offset="1" stop-color="#E18E3F"/>
</radialGradient>
<linearGradient id="paint4_linear_0_4035" x1="17.3388" y1="34.0767" x2="17.3388" y2="41.4131" gradientUnits="userSpaceOnUse">
<stop stop-color="#D8796F" stop-opacity="0"/>
<stop offset="1" stop-color="#D8796F"/>
</linearGradient>
<linearGradient id="paint5_linear_0_4035" x1="25.8382" y1="14.7958" x2="25.8382" y2="33.9081" gradientUnits="userSpaceOnUse">
<stop stop-color="#D1730B"/>
<stop offset="1" stop-color="#E27D47"/>
</linearGradient>
<linearGradient id="paint6_linear_0_4035" x1="34.2637" y1="16.9306" x2="21.2563" y2="16.9306" gradientUnits="userSpaceOnUse">
<stop stop-color="#FFDB44"/>
<stop offset="1" stop-color="#F9A928"/>
</linearGradient>
<radialGradient id="paint7_radial_0_4035" cx="0" cy="0" r="1" gradientUnits="userSpaceOnUse" gradientTransform="translate(23.3721 20.6408) rotate(-142.633) scale(3.33847 2.23468)">
<stop stop-color="#D98320"/>
<stop offset="1" stop-color="#D98320" stop-opacity="0"/>
</radialGradient>
<linearGradient id="paint8_linear_0_4035" x1="32.7137" y1="35.9279" x2="21.0855" y2="35.9279" gradientUnits="userSpaceOnUse">
<stop stop-color="#FFDB44"/>
<stop offset="1" stop-color="#F9A928"/>
</linearGradient>
<radialGradient id="paint9_radial_0_4035" cx="0" cy="0" r="1" gradientUnits="userSpaceOnUse" gradientTransform="translate(23.6673 40.0009) scale(10.519 4.0017)">
<stop stop-color="#F29545"/>
<stop offset="1" stop-color="#F29545" stop-opacity="0"/>
</radialGradient>
<radialGradient id="paint10_radial_0_4035" cx="0" cy="0" r="1" gradientUnits="userSpaceOnUse" gradientTransform="translate(23.1624 33.285) scale(10.6678 2.86362)">
<stop stop-color="#DA810B"/>
<stop offset="1" stop-color="#FFB610" stop-opacity="0"/>
</radialGradient>
<linearGradient id="paint11_linear_0_4035" x1="27.4578" y1="40.8388" x2="27.4578" y2="38.2037" gradientUnits="userSpaceOnUse">
<stop stop-color="#DC7C6A"/>
<stop offset="1" stop-color="#DC7C6A" stop-opacity="0"/>
</linearGradient>
<radialGradient id="paint12_radial_0_4035" cx="0" cy="0" r="1" gradientUnits="userSpaceOnUse" gradientTransform="translate(19.3986 35.9261) scale(8.0592 12.1145)">
<stop stop-color="#E38811"/>
<stop offset="1" stop-color="#E38811" stop-opacity="0"/>
</radialGradient>
<linearGradient id="paint13_linear_0_4035" x1="32.4733" y1="34.8537" x2="24.1473" y2="34.8537" gradientUnits="userSpaceOnUse">
<stop stop-color="#FFF166"/>
<stop offset="1" stop-color="#FFF166" stop-opacity="0"/>
</linearGradient>
<linearGradient id="paint14_linear_0_4035" x1="34.4172" y1="29.9837" x2="21.085" y2="29.9837" gradientUnits="userSpaceOnUse">
<stop stop-color="#FFDB44"/>
<stop offset="1" stop-color="#F9A928"/>
</linearGradient>
<radialGradient id="paint15_radial_0_4035" cx="0" cy="0" r="1" gradientUnits="userSpaceOnUse" gradientTransform="translate(24.0452 34.2725) scale(12.0605 4.21378)">
<stop stop-color="#F29545"/>
<stop offset="1" stop-color="#F29545" stop-opacity="0"/>
</radialGradient>
<radialGradient id="paint16_radial_0_4035" cx="0" cy="0" r="1" gradientUnits="userSpaceOnUse" gradientTransform="translate(23.4663 27.2006) scale(12.2311 3.01539)">
<stop stop-color="#DA810B"/>
<stop offset="1" stop-color="#FFB610" stop-opacity="0"/>
</radialGradient>
<linearGradient id="paint17_linear_0_4035" x1="33.7598" y1="29.2899" x2="23.3338" y2="29.2899" gradientUnits="userSpaceOnUse">
<stop stop-color="#FFF166"/>
<stop offset="1" stop-color="#FFF166" stop-opacity="0"/>
</linearGradient>
<linearGradient id="paint18_linear_0_4035" x1="35.6328" y1="23.4916" x2="21.0863" y2="23.4916" gradientUnits="userSpaceOnUse">
<stop stop-color="#FFDB44"/>
<stop offset="1" stop-color="#F9A928"/>
</linearGradient>
<radialGradient id="paint19_radial_0_4035" cx="0" cy="0" r="1" gradientUnits="userSpaceOnUse" gradientTransform="translate(24.0945 26.6721) scale(7.91168 3.52166)">
<stop stop-color="#F29545"/>
<stop offset="1" stop-color="#F29545" stop-opacity="0"/>
</radialGradient>
<radialGradient id="paint20_radial_0_4035" cx="0" cy="0" r="1" gradientUnits="userSpaceOnUse" gradientTransform="translate(14.9602 4.27819) rotate(90) scale(9.14785 3.39647)">
<stop stop-color="#F3A52A"/>
<stop offset="1" stop-color="#F3A52A" stop-opacity="0"/>
</radialGradient>
<radialGradient id="paint21_radial_0_4035" cx="0" cy="0" r="1" gradientUnits="userSpaceOnUse" gradientTransform="translate(12.2882 10.3013) rotate(42.9975) scale(4.58199 6.93331)">
<stop stop-color="#CDA25E"/>
<stop offset="1" stop-color="#CDA25E" stop-opacity="0"/>
</radialGradient>
<radialGradient id="paint22_radial_0_4035" cx="0" cy="0" r="1" gradientUnits="userSpaceOnUse" gradientTransform="translate(17.0429 3.71251) rotate(-168.366) scale(2.35805 5.14698)">
<stop offset="0.549892" stop-color="#CCB28B" stop-opacity="0"/>
<stop offset="1" stop-color="#CCB28B"/>
</radialGradient>
<linearGradient id="paint23_linear_0_4035" x1="32.4153" y1="14.8779" x2="22.9026" y2="14.8779" gradientUnits="userSpaceOnUse">
<stop stop-color="#FFF166"/>
<stop offset="1" stop-color="#FFF166" stop-opacity="0"/>
</linearGradient>
<linearGradient id="paint24_linear_0_4035" x1="33.7271" y1="21.3165" x2="22.6076" y2="21.3165" gradientUnits="userSpaceOnUse">
<stop stop-color="#FFF166"/>
<stop offset="1" stop-color="#FFF166" stop-opacity="0"/>
</linearGradient>
<linearGradient id="paint25_linear_0_4035" x1="22.6258" y1="4.94081" x2="18.1836" y2="4.94081" gradientUnits="userSpaceOnUse">
<stop stop-color="#FFF166"/>
<stop offset="1" stop-color="#FFF166" stop-opacity="0"/>
</linearGradient>
</defs>
</svg>
