<svg width="28" height="28" viewBox="0 0 28 28" fill="none" xmlns="http://www.w3.org/2000/svg">
<path d="M0.675781 13.6445C0.675781 13.9082 0.790039 14.1719 0.992188 14.3652L6.79297 20.1572C7.00391 20.3594 7.23242 20.4561 7.4873 20.4561C8.04102 20.4561 8.44531 20.0605 8.44531 19.5244C8.44531 19.2432 8.33984 19.0059 8.15527 18.8301L6.17773 16.8262L3.62891 14.4971L5.67676 14.6201H16.3291C16.9092 14.6201 17.3135 14.2158 17.3135 13.6445C17.3135 13.0645 16.9092 12.6602 16.3291 12.6602H5.67676L3.6377 12.7832L6.17773 10.4541L8.15527 8.4502C8.33984 8.27441 8.44531 8.03711 8.44531 7.75586C8.44531 7.21973 8.04102 6.82422 7.4873 6.82422C7.23242 6.82422 6.99512 6.9209 6.7666 7.14062L0.992188 12.915C0.790039 13.1084 0.675781 13.3721 0.675781 13.6445Z" fill="#6D5C70"/>
</svg>
