<svg width="151" height="28" viewBox="0 0 151 28" fill="none" xmlns="http://www.w3.org/2000/svg">
<g id="Group 20">
<path id="Vector" fill-rule="evenodd" clip-rule="evenodd" d="M94.1973 9.54612C94.1973 12.2525 92.6507 14.4242 90.1804 15.3969L93.1321 19.2746C93.5459 19.8255 93.7696 20.3686 93.7696 20.872C93.7696 21.5196 93.5384 22.081 93.1305 22.481C92.7228 22.881 92.1503 23.1077 91.49 23.1077C90.7073 23.1077 90.0817 22.765 89.5932 22.1363L89.5923 22.1351L85.1455 16.2282H82.4496V20.7601C82.4496 22.1259 81.4485 23.1077 80.056 23.1077C78.6903 23.1077 77.6909 22.1241 77.6909 20.7601V5.32338C77.6909 3.98566 78.692 3.00383 80.056 3.00383H86.8137C88.992 3.00383 90.7526 3.60327 92.1352 4.81503C93.5214 6.02995 94.1973 7.62273 94.1973 9.54612ZM111.415 21.7094C113.146 21.7094 114.566 21.2226 115.634 20.2361C115.597 21.4079 115.197 22.3057 114.504 22.9197C113.774 23.5665 112.694 23.9218 111.301 23.9218C109.94 23.9218 108.574 23.5681 107.172 22.853L107.166 22.85L107.16 22.8474C106.7 22.6503 106.298 22.5235 105.969 22.5235C105.423 22.5235 104.956 22.708 104.626 23.04C104.296 23.3714 104.117 23.8352 104.117 24.3677C104.117 25.0924 104.508 25.6806 105.238 26.0993C106.959 27.1853 109.107 27.7219 111.643 27.7219C114.334 27.7219 116.445 26.9542 117.946 25.3959C119.442 23.8424 120.195 21.7494 120.195 19.1661V10.0774C120.195 9.4717 119.978 8.94572 119.6 8.57057C119.221 8.19534 118.692 7.98163 118.087 7.98163C117.063 7.98163 116.281 8.60887 116.044 9.5305C114.85 8.41172 113.349 7.8418 111.557 7.8418C109.375 7.8418 107.555 8.49995 106.117 9.85338L106.116 9.85415L106.115 9.85479C104.707 11.2068 104.003 12.8793 104.003 14.8595C104.003 16.7592 104.71 18.3756 106.145 19.7257L106.146 19.7265L106.147 19.7272C107.583 21.0495 109.343 21.7094 111.415 21.7094ZM115.779 14.8874C115.779 15.7815 115.433 16.5415 114.731 17.1775C114.058 17.7846 113.195 18.105 112.156 18.105C111.119 18.105 110.255 17.7859 109.553 17.1777C108.879 16.5413 108.533 15.781 108.533 14.8874C108.533 13.9921 108.88 13.2325 109.553 12.6253L109.553 12.6252C110.255 11.9896 111.118 11.6699 112.156 11.6699C113.195 11.6699 114.056 11.99 114.728 12.6225L114.731 12.6253L114.734 12.6279C115.433 13.2346 115.779 13.9926 115.779 14.8874ZM146.289 17.4323V11.8097H149.143C149.688 11.8097 150.155 11.6253 150.485 11.2933C150.815 10.9618 150.994 10.4981 150.994 9.96558C150.994 9.43307 150.815 8.96943 150.485 8.63794C150.155 8.30595 149.688 8.12145 149.143 8.12145H146.289V6.74961C146.289 6.10365 146.067 5.54863 145.665 5.1546C145.263 4.76057 144.697 4.54191 144.038 4.54191C143.38 4.54191 142.808 4.76035 142.4 5.15326C141.99 5.54653 141.759 6.10171 141.759 6.74961V8.12145H140.787C140.23 8.12145 139.756 8.30498 139.42 8.63709C139.086 8.96884 138.907 9.433 138.907 9.96558C138.907 10.4982 139.086 10.9623 139.42 11.2941C139.756 11.6262 140.23 11.8097 140.787 11.8097H141.759V18.4669C141.759 19.9625 142.237 21.1641 143.118 21.9911C143.996 22.817 145.255 23.2475 146.776 23.2475C147.705 23.2475 148.579 23.1335 149.396 22.9044L149.403 22.9026L149.409 22.9003C149.905 22.7233 150.297 22.467 150.564 22.1265C150.833 21.7845 150.965 21.3709 150.965 20.9C150.965 20.3395 150.779 19.8656 150.423 19.5324C150.068 19.2003 149.566 19.0278 148.972 19.0278C148.933 19.0278 148.862 19.0377 148.797 19.0467L148.793 19.0472L148.742 19.0543V19.0544C148.677 19.0637 148.598 19.0745 148.515 19.0854C148.298 19.1132 148.045 19.1397 147.831 19.1397C147.282 19.1397 146.91 18.9901 146.67 18.7259C146.427 18.4574 146.289 18.0369 146.289 17.4323ZM82.4496 6.99974H86.272C87.2743 6.99974 88.0641 7.28881 88.6012 7.77035C89.1368 8.25048 89.4386 8.93735 89.4386 9.76984C89.4386 10.6023 89.1368 11.2892 88.6012 11.7693C88.0641 12.2508 87.2743 12.54 86.272 12.54H82.4496V6.99974ZM99.258 6.88788C100.815 6.88788 101.937 5.82815 101.937 4.3446C101.937 2.89053 100.817 1.80133 99.258 1.80133C97.6721 1.80133 96.5507 2.88906 96.5507 4.3446C96.5507 5.07908 96.8269 5.71812 97.3103 6.17312C97.7932 6.62765 98.4714 6.88788 99.258 6.88788ZM99.258 7.98163C98.5827 7.98163 98.003 8.21582 97.5918 8.62293C97.1809 9.02979 96.95 9.59787 96.95 10.2453V20.8441C96.95 21.4915 97.1809 22.0596 97.5918 22.4663C98.003 22.8735 98.5827 23.1077 99.258 23.1077C99.9202 23.1077 100.493 22.8726 100.9 22.4657C101.307 22.059 101.537 21.4913 101.537 20.8441V10.2453C101.537 9.59792 101.307 9.03024 100.9 8.6236C100.493 8.21664 99.9202 7.98163 99.258 7.98163ZM132.157 7.8418C130.316 7.8418 128.838 8.46831 127.763 9.744V5.0717C127.763 3.81787 126.791 2.864 125.512 2.864C124.854 2.864 124.282 3.08245 123.873 3.47536C123.464 3.86863 123.233 4.4238 123.233 5.0717V20.872C123.233 21.5196 123.464 22.081 123.872 22.481C124.28 22.881 124.852 23.1077 125.512 23.1077C126.173 23.1077 126.739 22.8807 127.14 22.4796C127.54 22.079 127.763 21.5177 127.763 20.872V15.2243C127.778 14.1271 128.094 13.3186 128.602 12.7863C129.107 12.2552 129.821 11.9776 130.673 11.9776C131.479 11.9776 132.141 12.2525 132.604 12.7865C133.07 13.3245 133.355 14.1481 133.355 15.2789V20.872C133.355 21.5177 133.578 22.079 133.979 22.4796C134.38 22.8807 134.945 23.1077 135.606 23.1077C136.266 23.1077 136.839 22.881 137.247 22.481C137.654 22.081 137.885 21.5196 137.885 20.872V13.9646C137.885 12.0813 137.332 10.5731 136.232 9.49363C135.138 8.39248 133.775 7.8418 132.157 7.8418ZM46.9255 3.44343C47.4607 3.83331 47.8789 4.41095 48.1881 5.16113L54.319 19.3966L54.32 19.3992C54.5223 19.9093 54.6472 20.3558 54.6472 20.7559C54.6472 21.4307 54.4095 22.0196 53.988 22.4405C53.5663 22.862 52.9722 23.1035 52.2821 23.1035C51.719 23.1035 51.2328 22.9609 50.8326 22.6617C50.435 22.3644 50.1386 21.9246 49.9301 21.3565L48.898 18.8528H40.8113L39.8069 21.329L39.8063 21.33C39.5845 21.8956 39.2896 22.3401 38.9094 22.6438C38.5257 22.9503 38.0672 23.1035 37.5405 23.1035C36.2087 23.1035 35.2324 22.1531 35.2324 20.8957C35.2324 20.5488 35.3595 20.1277 35.5596 19.6229L35.5606 19.6202L41.8069 5.15812L41.8076 5.15674C42.1452 4.40801 42.5775 3.83189 43.1149 3.44303C43.6548 3.05255 44.2886 2.8598 45.0111 2.8598C45.7466 2.8598 46.3882 3.05196 46.9255 3.44343ZM42.2506 15.0806L44.8676 8.53787L47.4591 15.0806H42.2506ZM58.7941 2.8598C58.1208 2.8598 57.5412 3.08572 57.1293 3.48581C56.7174 3.88598 56.4862 4.44779 56.4862 5.09547V20.8398C56.4862 21.4872 56.7171 22.0553 57.128 22.4621C57.5391 22.8693 58.1189 23.1035 58.7941 23.1035C59.4564 23.1035 60.029 22.8684 60.436 22.4615C60.8427 22.0548 61.0737 21.4872 61.0737 20.8398V5.09547C61.0737 4.44785 60.8424 3.88643 60.4347 3.48647C60.0269 3.08651 59.4544 2.8598 58.7941 2.8598ZM66.7022 2.8598C66.0289 2.8598 65.4493 3.08572 65.0374 3.48581C64.6255 3.88598 64.3943 4.44779 64.3943 5.09547V20.8398C64.3943 21.4872 64.6252 22.0553 65.0361 22.4621C65.4472 22.8693 66.027 23.1035 66.7022 23.1035C67.3645 23.1035 67.9371 22.8684 68.3441 22.4615C68.7508 22.0548 68.9818 21.4872 68.9818 20.8398V5.09547C68.9818 4.44785 68.7506 3.88643 68.3428 3.48647C67.935 3.08651 67.3625 2.8598 66.7022 2.8598Z" fill="#823CDC"/>
<g id="Group">
<path id="Vector_2" fill-rule="evenodd" clip-rule="evenodd" d="M11.6225 23.8775C11.0735 22.8346 11.4886 21.5517 12.55 21.012C14.9406 19.7966 19.355 17.1517 22.6192 14.1184C24.2622 12.5915 25.4661 11.1005 26.0504 9.77072C26.6003 8.51926 26.5405 7.60156 26.0007 6.78641C24.942 5.18735 22.5641 4.35148 20.2463 5.02436C18.1415 5.63544 15.9311 7.60329 15.7058 11.9959C15.694 12.2251 15.6582 12.7543 15.3772 13.2693C15.2151 13.5663 14.8994 13.9895 14.335 14.2556C13.7434 14.5347 13.1634 14.5078 12.746 14.3981C12.0796 14.2228 11.6481 13.7945 11.5197 13.6671L11.517 13.6644C11.3181 13.4669 11.139 13.2459 10.994 13.0566C10.7289 12.7103 10.4243 12.2647 10.1263 11.829C10.0979 11.7874 10.0695 11.7459 10.0412 11.7046C9.69987 11.2058 9.33546 10.6769 8.94027 10.1477C8.12526 9.05631 7.29659 8.12704 6.49899 7.57909C5.74202 7.05907 5.32619 7.07444 5.00664 7.20167C4.52681 7.39271 4.418 7.60476 4.3636 7.85197C4.27844 8.23888 4.32027 8.9579 4.76991 10.0406C5.66084 12.1857 7.80473 14.9096 10.8165 17.3234C11.7426 18.0655 11.881 19.4049 11.1257 20.3148C10.3705 21.2249 9.00747 21.3609 8.08139 20.6188C4.70955 17.9164 2.01118 14.6523 0.763199 11.6474C0.143367 10.155 -0.208443 8.50844 0.13384 6.95314C0.506868 5.25813 1.64656 3.95127 3.38153 3.26048C5.55602 2.3947 7.53765 3.10403 8.97858 4.09394C10.2876 4.99322 11.3951 6.27236 12.2535 7.39886C13.5338 3.97824 16.0648 1.80422 19.0201 0.946213C22.8736 -0.17255 27.3643 1.04831 29.6281 4.46734C31.1634 6.78616 30.9808 9.27769 30.0234 11.4565C29.1004 13.5569 27.4124 15.5169 25.5926 17.2081C21.931 20.6106 17.1353 23.4686 14.5387 24.7889C13.4774 25.3285 12.1718 24.9205 11.6225 23.8775Z" fill="#FE8B21"/>
</g>
</g>
</svg>
